<svg xmlns="http://www.w3.org/2000/svg" xmlns:xlink="http://www.w3.org/1999/xlink" width="500" zoomAndPan="magnify" viewBox="0 0 375 374.999991" height="500" preserveAspectRatio="xMidYMid meet" version="1.2"><defs><filter x="0%" y="0%" width="100%" filterUnits="objectBoundingBox" id="7f28fd2341" height="100%"><feColorMatrix values="0 0 0 0 1 0 0 0 0 1 0 0 0 0 1 0 0 0 1 0" type="matrix" in="SourceGraphic"/></filter><clipPath id="65c9cfc1c8"><path d="M 13 42 L 362 42 L 362 309 L 13 309 Z M 13 42 "/></clipPath><clipPath id="284e19b3ac"><path d="M 69.273438 400.910156 L -45.640625 48.34375 L 285.40625 -59.554688 L 400.320312 293.011719 Z M 69.273438 400.910156 "/></clipPath><clipPath id="d54808489f"><path d="M 121.328125 383.945312 L 347.339844 310.28125 C 376.089844 300.910156 391.796875 270.007812 382.429688 241.257812 L 301.589844 -6.757812 C 292.21875 -35.507812 261.316406 -51.21875 232.566406 -41.847656 L 6.558594 31.816406 C -22.191406 41.1875 -37.902344 72.089844 -28.53125 100.839844 L 52.308594 348.855469 C 61.679688 377.605469 92.582031 393.316406 121.328125 383.945312 Z M 121.328125 383.945312 "/></clipPath><clipPath id="fb5c1298e3"><path d="M 69.273438 400.910156 L -45.640625 48.34375 L 284.378906 -59.222656 L 399.292969 293.347656 Z M 69.273438 400.910156 "/></clipPath><clipPath id="8cdd77ae55"><path d="M 69.273438 400.910156 L -45.640625 48.34375 L 284.378906 -59.222656 L 399.292969 293.347656 Z M 69.273438 400.910156 "/></clipPath><clipPath id="1890372dea"><path d="M 3 34 L 371 34 L 371 316 L 3 316 Z M 3 34 "/></clipPath><clipPath id="1c06f07c67"><path d="M 69.273438 400.910156 L -45.640625 48.34375 L 285.40625 -59.554688 L 400.320312 293.011719 Z M 69.273438 400.910156 "/></clipPath><clipPath id="c85b7e859a"><path d="M 121.328125 383.945312 L 347.339844 310.28125 C 376.089844 300.910156 391.796875 270.007812 382.429688 241.257812 L 301.589844 -6.757812 C 292.21875 -35.507812 261.316406 -51.21875 232.566406 -41.847656 L 6.558594 31.816406 C -22.191406 41.1875 -37.902344 72.089844 -28.53125 100.839844 L 52.308594 348.855469 C 61.679688 377.605469 92.582031 393.316406 121.328125 383.945312 Z M 121.328125 383.945312 "/></clipPath><clipPath id="49dee2c78f"><path d="M 69.273438 400.910156 L -45.640625 48.34375 L 284.378906 -59.222656 L 399.292969 293.347656 Z M 69.273438 400.910156 "/></clipPath><clipPath id="27e2334802"><path d="M 69.273438 400.910156 L -45.640625 48.34375 L 284.378906 -59.222656 L 399.292969 293.347656 Z M 69.273438 400.910156 "/></clipPath><clipPath id="b560f8b705"><rect x="0" width="375" y="0" height="375"/></clipPath><clipPath id="6d3d1f2749"><path d="M 212 160 L 239 160 L 239 206 L 212 206 Z M 212 160 "/></clipPath><clipPath id="f772dc11f6"><path d="M 193.441406 169.992188 L 237.648438 125.78125 L 273.476562 161.605469 L 229.265625 205.816406 Z M 193.441406 169.992188 "/></clipPath><clipPath id="a5f840aa8d"><path d="M 193.441406 169.992188 L 237.648438 125.78125 L 273.476562 161.605469 L 229.265625 205.816406 Z M 193.441406 169.992188 "/></clipPath><clipPath id="e9f81a41ef"><path d="M 230 125 L 250 125 L 250 157 L 230 157 Z M 230 125 "/></clipPath><clipPath id="c619d17d20"><path d="M 193.441406 169.992188 L 237.648438 125.78125 L 273.476562 161.605469 L 229.265625 205.816406 Z M 193.441406 169.992188 "/></clipPath><clipPath id="98a059183b"><path d="M 193.441406 169.992188 L 237.648438 125.78125 L 273.476562 161.605469 L 229.265625 205.816406 Z M 193.441406 169.992188 "/></clipPath><clipPath id="c950b4fe67"><path d="M 216 159 L 220 159 L 220 163 L 216 163 Z M 216 159 "/></clipPath><clipPath id="e686256321"><path d="M 193.441406 169.992188 L 237.648438 125.78125 L 273.476562 161.605469 L 229.265625 205.816406 Z M 193.441406 169.992188 "/></clipPath><clipPath id="6d827bf877"><path d="M 193.441406 169.992188 L 237.648438 125.78125 L 273.476562 161.605469 L 229.265625 205.816406 Z M 193.441406 169.992188 "/></clipPath><clipPath id="cb023919bd"><path d="M 244 155 L 249 155 L 249 159 L 244 159 Z M 244 155 "/></clipPath><clipPath id="47ff2e9988"><path d="M 193.441406 169.992188 L 237.648438 125.78125 L 273.476562 161.605469 L 229.265625 205.816406 Z M 193.441406 169.992188 "/></clipPath><clipPath id="bbdc2cc2ab"><path d="M 193.441406 169.992188 L 237.648438 125.78125 L 273.476562 161.605469 L 229.265625 205.816406 Z M 193.441406 169.992188 "/></clipPath><clipPath id="7ac6ef5220"><path d="M 236 185 L 241 185 L 241 189 L 236 189 Z M 236 185 "/></clipPath><clipPath id="ca49a85a5f"><path d="M 193.441406 169.992188 L 237.648438 125.78125 L 273.476562 161.605469 L 229.265625 205.816406 Z M 193.441406 169.992188 "/></clipPath><clipPath id="7902745f1d"><path d="M 193.441406 169.992188 L 237.648438 125.78125 L 273.476562 161.605469 L 229.265625 205.816406 Z M 193.441406 169.992188 "/></clipPath></defs><g id="599a7bca5c"><g mask="url(#e26b15cec0)" transform="matrix(1,0,0,1,0,0)"><g clip-path="url(#b560f8b705)"><g clip-rule="nonzero" clip-path="url(#65c9cfc1c8)"><g clip-rule="nonzero" clip-path="url(#284e19b3ac)"><g clip-rule="nonzero" clip-path="url(#d54808489f)"><g clip-rule="nonzero" clip-path="url(#fb5c1298e3)"><g clip-rule="nonzero" clip-path="url(#8cdd77ae55)"><path style=" stroke:none;fill-rule:nonzero;fill:#eeaeae;fill-opacity:1;" d="M 18.382812 138.097656 C 31.785156 179.46875 68.441406 222.527344 114.800781 256.164062 C 75.589844 225.804688 45.003906 188.390625 33.324219 152.351562 C 11.445312 84.808594 64.230469 47.652344 151.222656 69.363281 C 238.214844 91.0625 326.464844 163.410156 348.34375 230.949219 C 360.015625 267 350.421875 294.382812 325.707031 308.792969 C 356.511719 294.410156 369.269531 263.683594 355.875 222.308594 C 332.4375 149.945312 237.886719 72.445312 144.695312 49.191406 C 51.496094 25.929688 -5.050781 65.742188 18.382812 138.097656 Z M 18.382812 138.097656 "/></g></g></g></g></g><g clip-rule="nonzero" clip-path="url(#1890372dea)"><g clip-rule="nonzero" clip-path="url(#1c06f07c67)"><g clip-rule="nonzero" clip-path="url(#c85b7e859a)"><g clip-rule="nonzero" clip-path="url(#49dee2c78f)"><g clip-rule="nonzero" clip-path="url(#27e2334802)"><path style=" stroke:none;fill-rule:nonzero;fill:#eeaeae;fill-opacity:1;" d="M 47.339844 199.945312 C -24.179688 114.160156 -4.878906 35.945312 87.234375 34.59375 C 178.0625 32.058594 306.308594 109.859375 352.492188 195.472656 C 382.925781 250.097656 373.710938 298.96875 329.0625 316 C 377.339844 295.230469 380.820312 236.640625 336.378906 175.109375 C 270.660156 82.269531 128.308594 16.820312 51.359375 44.230469 C -6.960938 64.316406 -8.316406 130.785156 47.339844 199.945312 Z M 47.339844 199.945312 "/></g></g></g></g></g></g><mask id="e26b15cec0"><g filter="url(#7f28fd2341)"><rect x="0" width="375" y="0" height="374.999991" style="fill:#000000;fill-opacity:0.46;stroke:none;"/></g></mask></g><g clip-rule="nonzero" clip-path="url(#6d3d1f2749)"><g clip-rule="nonzero" clip-path="url(#f772dc11f6)"><g clip-rule="nonzero" clip-path="url(#a5f840aa8d)"><path style=" stroke:none;fill-rule:evenodd;fill:#eeaeae;fill-opacity:1;" d="M 230.367188 193.585938 L 228.703125 191.917969 L 230.367188 190.253906 L 228.703125 188.589844 L 230.367188 186.921875 L 228.703125 185.257812 L 230.367188 183.59375 L 228.703125 181.925781 L 230.367188 180.261719 L 232.035156 178.597656 L 230.367188 176.929688 L 232.035156 175.265625 L 233.699219 176.929688 L 235.363281 175.265625 L 237.03125 176.929688 L 238.695312 175.265625 L 237.03125 173.601562 L 235.363281 175.265625 L 233.699219 173.601562 L 232.035156 171.933594 L 230.367188 170.269531 L 227.035156 166.9375 L 228.703125 165.273438 L 227.035156 163.605469 L 228.703125 161.941406 L 227.035156 160.277344 L 225.371094 161.941406 L 227.035156 163.605469 L 225.371094 165.273438 L 227.035156 166.9375 L 225.371094 168.605469 L 223.707031 170.269531 L 225.371094 171.933594 L 223.707031 173.601562 L 222.039062 171.933594 L 220.375 173.601562 L 218.710938 175.265625 L 217.042969 173.601562 L 215.378906 175.265625 L 213.714844 173.601562 L 212.046875 175.265625 L 213.714844 176.929688 L 215.378906 175.265625 L 217.042969 176.929688 L 218.710938 175.265625 L 220.375 176.929688 L 222.039062 175.265625 L 223.707031 176.929688 L 222.039062 178.597656 L 223.707031 180.261719 L 225.371094 178.597656 L 227.035156 180.261719 L 225.371094 181.925781 L 227.035156 183.59375 L 228.703125 185.257812 L 227.035156 186.921875 L 228.703125 188.589844 L 227.035156 190.253906 L 228.703125 191.917969 L 227.035156 193.585938 L 228.703125 195.25 L 227.035156 196.917969 L 228.703125 198.582031 L 230.367188 196.917969 L 228.703125 195.25 Z M 230.367188 203.578125 L 228.703125 201.914062 L 227.035156 203.578125 L 228.703125 205.242188 Z M 230.367188 203.578125 "/></g></g></g><g clip-rule="nonzero" clip-path="url(#e9f81a41ef)"><g clip-rule="nonzero" clip-path="url(#c619d17d20)"><g clip-rule="nonzero" clip-path="url(#98a059183b)"><path style=" stroke:none;fill-rule:evenodd;fill:#eeaeae;fill-opacity:1;" d="M 236.492188 133.859375 L 237.644531 135.011719 L 236.492188 136.164062 L 237.644531 137.316406 L 236.492188 138.46875 L 237.644531 139.621094 L 236.492188 140.777344 L 237.644531 141.929688 L 235.339844 144.234375 L 236.492188 145.386719 L 235.339844 146.539062 L 234.1875 145.386719 L 233.035156 146.539062 L 231.878906 145.386719 L 230.726562 146.539062 L 231.878906 147.695312 L 233.035156 146.539062 L 234.1875 147.695312 L 238.796875 152.304688 L 237.644531 153.457031 L 238.796875 154.613281 L 237.644531 155.765625 L 238.796875 156.917969 L 239.953125 155.765625 L 238.796875 154.613281 L 239.953125 153.457031 L 238.796875 152.304688 L 239.953125 151.152344 L 241.105469 150 L 239.953125 148.847656 L 241.105469 147.695312 L 242.257812 148.847656 L 243.410156 147.695312 L 244.5625 146.539062 L 245.714844 147.695312 L 246.871094 146.539062 L 248.023438 147.695312 L 249.175781 146.539062 L 248.023438 145.386719 L 246.871094 146.539062 L 245.714844 145.386719 L 244.5625 146.539062 L 243.410156 145.386719 L 242.257812 146.539062 L 241.105469 145.386719 L 242.257812 144.234375 L 241.105469 143.082031 L 239.953125 144.234375 L 238.796875 143.082031 L 239.953125 141.929688 L 238.796875 140.777344 L 237.644531 139.621094 L 238.796875 138.46875 L 237.644531 137.316406 L 238.796875 136.164062 L 237.644531 135.011719 L 238.796875 133.859375 L 237.644531 132.703125 L 238.796875 131.550781 L 237.644531 130.398438 L 236.492188 131.550781 L 237.644531 132.703125 Z M 236.492188 126.941406 L 237.644531 128.09375 L 238.796875 126.941406 L 237.644531 125.785156 Z M 236.492188 126.941406 "/></g></g></g><g clip-rule="nonzero" clip-path="url(#c950b4fe67)"><g clip-rule="nonzero" clip-path="url(#e686256321)"><g clip-rule="nonzero" clip-path="url(#6d827bf877)"><path style=" stroke:none;fill-rule:evenodd;fill:#eeaeae;fill-opacity:1;" d="M 216.375 160.761719 L 218.039062 159.097656 L 219.703125 160.761719 L 218.039062 162.425781 Z M 216.375 160.761719 "/></g></g></g><g clip-rule="nonzero" clip-path="url(#cb023919bd)"><g clip-rule="nonzero" clip-path="url(#47ff2e9988)"><g clip-rule="nonzero" clip-path="url(#bbdc2cc2ab)"><path style=" stroke:none;fill-rule:evenodd;fill:#eeaeae;fill-opacity:1;" d="M 244.761719 157.058594 L 246.425781 155.394531 L 248.09375 157.058594 L 246.425781 158.726562 Z M 244.761719 157.058594 "/></g></g></g><g clip-rule="nonzero" clip-path="url(#7ac6ef5220)"><g clip-rule="nonzero" clip-path="url(#ca49a85a5f)"><g clip-rule="nonzero" clip-path="url(#7902745f1d)"><path style=" stroke:none;fill-rule:evenodd;fill:#eeaeae;fill-opacity:1;" d="M 236.863281 186.679688 L 238.527344 185.015625 L 240.191406 186.679688 L 238.527344 188.347656 Z M 236.863281 186.679688 "/></g></g></g><g style="fill:#eeaeae;fill-opacity:1;"><g transform="translate(66.71395, 186.76837)"><path style="stroke:none" d="M 66.5 -57.96875 C 65.070312 -57.851562 63.765625 -57.597656 62.578125 -57.203125 C 61.398438 -56.816406 60.320312 -56.304688 59.34375 -55.671875 C 58.375 -55.046875 57.488281 -54.285156 56.6875 -53.390625 C 55.882812 -52.503906 55.117188 -51.492188 54.390625 -50.359375 C 54.066406 -49.804688 53.484375 -48.816406 52.640625 -47.390625 C 51.796875 -45.960938 50.832031 -44.320312 49.75 -42.46875 C 48.664062 -40.613281 47.519531 -38.648438 46.3125 -36.578125 C 45.101562 -34.503906 43.972656 -32.5625 42.921875 -30.75 C 41.867188 -28.945312 40.941406 -27.367188 40.140625 -26.015625 C 39.335938 -24.660156 38.804688 -23.765625 38.546875 -23.328125 L 38.546875 -9.140625 C 38.546875 -7.921875 38.671875 -6.875 38.921875 -6 C 39.171875 -5.125 39.59375 -4.414062 40.1875 -3.875 C 40.78125 -3.332031 41.554688 -2.9375 42.515625 -2.6875 C 43.484375 -2.4375 44.671875 -2.3125 46.078125 -2.3125 L 47.4375 -2.3125 L 47.4375 0 L 20.515625 0 L 20.515625 -2.3125 L 22.578125 -2.3125 C 25.203125 -2.3125 27.101562 -2.820312 28.28125 -3.84375 C 29.46875 -4.863281 30.0625 -6.570312 30.0625 -8.96875 L 30.0625 -22.359375 C 29.96875 -22.472656 29.664062 -22.9375 29.15625 -23.75 C 28.644531 -24.570312 27.988281 -25.609375 27.1875 -26.859375 C 26.382812 -28.117188 25.476562 -29.523438 24.46875 -31.078125 C 23.46875 -32.640625 22.457031 -34.226562 21.4375 -35.84375 C 20.414062 -37.46875 19.410156 -39.050781 18.421875 -40.59375 C 17.429688 -42.144531 16.546875 -43.523438 15.765625 -44.734375 C 14.992188 -45.953125 14.359375 -46.945312 13.859375 -47.71875 C 13.367188 -48.488281 13.109375 -48.90625 13.078125 -48.96875 C 11.441406 -51.46875 9.988281 -53.367188 8.71875 -54.671875 C 7.457031 -55.972656 6.300781 -56.8125 5.25 -57.1875 C 4.582031 -57.414062 3.800781 -57.597656 2.90625 -57.734375 C 2.019531 -57.867188 0.992188 -57.945312 -0.171875 -57.96875 L -0.171875 -60.203125 L 25.859375 -60.203125 L 25.859375 -57.96875 C 21.304688 -57.96875 19.03125 -57.238281 19.03125 -55.78125 C 19.03125 -55.289062 19.34375 -54.472656 19.96875 -53.328125 C 20.601562 -52.191406 21.363281 -50.929688 22.25 -49.546875 C 23.132812 -48.160156 24.070312 -46.738281 25.0625 -45.28125 C 26.0625 -43.820312 26.925781 -42.539062 27.65625 -41.4375 C 27.769531 -41.257812 28.035156 -40.847656 28.453125 -40.203125 C 28.878906 -39.566406 29.382812 -38.8125 29.96875 -37.9375 C 30.550781 -37.0625 31.160156 -36.125 31.796875 -35.125 C 32.441406 -34.132812 33.050781 -33.195312 33.625 -32.3125 C 34.195312 -31.425781 34.691406 -30.65625 35.109375 -30 C 35.535156 -29.34375 35.804688 -28.925781 35.921875 -28.75 C 36.066406 -28.976562 36.484375 -29.675781 37.171875 -30.84375 C 37.859375 -32.007812 38.675781 -33.410156 39.625 -35.046875 C 40.570312 -36.679688 41.59375 -38.421875 42.6875 -40.265625 C 43.78125 -42.117188 44.800781 -43.84375 45.75 -45.4375 C 46.695312 -47.03125 47.488281 -48.375 48.125 -49.46875 C 48.769531 -50.5625 49.125 -51.179688 49.1875 -51.328125 C 49.625 -52.171875 49.972656 -52.90625 50.234375 -53.53125 C 50.492188 -54.15625 50.625 -54.71875 50.625 -55.21875 C 50.625 -56.125 50.117188 -56.804688 49.109375 -57.265625 C 48.109375 -57.734375 46.523438 -57.96875 44.359375 -57.96875 L 44.359375 -60.203125 L 66.5 -60.203125 Z M 66.5 -57.96875 "/></g></g><g style="fill:#eeaeae;fill-opacity:1;"><g transform="translate(117.580125, 176.295792)"><path style="stroke:none" d="M 6.390625 -1.328125 C 6.390625 -0.972656 6.257812 -0.660156 6 -0.390625 C 5.738281 -0.128906 5.429688 0 5.078125 0 C 4.691406 0 4.375 -0.128906 4.125 -0.390625 C 3.875 -0.660156 3.75 -0.972656 3.75 -1.328125 L 3.75 -31.3125 C 3.75 -31.664062 3.878906 -31.972656 4.140625 -32.234375 C 4.410156 -32.503906 4.722656 -32.640625 5.078125 -32.640625 C 5.453125 -32.640625 5.765625 -32.503906 6.015625 -32.234375 C 6.265625 -31.972656 6.390625 -31.664062 6.390625 -31.3125 Z M 6.390625 -1.328125 "/></g></g><g style="fill:#eeaeae;fill-opacity:1;"><g transform="translate(126.620685, 176.295792)"><path style="stroke:none" d="M 2.953125 -23.03125 C 3.191406 -23.03125 3.425781 -22.953125 3.65625 -22.796875 C 3.894531 -22.648438 4.070312 -22.429688 4.1875 -22.140625 L 11.90625 -3.796875 L 11.34375 -3.4375 L 19.234375 -22.140625 C 19.460938 -22.734375 19.890625 -23.015625 20.515625 -22.984375 C 20.804688 -22.984375 21.082031 -22.882812 21.34375 -22.6875 C 21.613281 -22.5 21.75 -22.226562 21.75 -21.875 C 21.75 -21.695312 21.722656 -21.554688 21.671875 -21.453125 C 21.628906 -21.359375 21.59375 -21.25 21.5625 -21.125 L 12.921875 -0.84375 C 12.691406 -0.3125 12.296875 -0.03125 11.734375 0 C 11.472656 0.03125 11.21875 -0.03125 10.96875 -0.1875 C 10.71875 -0.351562 10.53125 -0.570312 10.40625 -0.84375 L 1.71875 -21.125 C 1.6875 -21.1875 1.65625 -21.273438 1.625 -21.390625 C 1.601562 -21.503906 1.59375 -21.625 1.59375 -21.75 C 1.59375 -22.070312 1.707031 -22.363281 1.9375 -22.625 C 2.175781 -22.894531 2.515625 -23.03125 2.953125 -23.03125 Z M 2.953125 -23.03125 "/></g></g><g style="fill:#eeaeae;fill-opacity:1;"><g transform="translate(149.95036, 176.295792)"><path style="stroke:none" d="M 6.046875 -1.328125 C 6.046875 -0.972656 5.910156 -0.660156 5.640625 -0.390625 C 5.378906 -0.128906 5.070312 0 4.71875 0 C 4.332031 0 4.015625 -0.128906 3.765625 -0.390625 C 3.515625 -0.660156 3.390625 -0.972656 3.390625 -1.328125 L 3.390625 -21.609375 C 3.390625 -21.960938 3.515625 -22.269531 3.765625 -22.53125 C 4.015625 -22.800781 4.332031 -22.9375 4.71875 -22.9375 C 5.101562 -22.9375 5.421875 -22.800781 5.671875 -22.53125 C 5.921875 -22.269531 6.046875 -21.960938 6.046875 -21.609375 Z M 4.71875 -25.890625 C 4.09375 -25.890625 3.625 -26.03125 3.3125 -26.3125 C 3.007812 -26.59375 2.859375 -26.992188 2.859375 -27.515625 L 2.859375 -27.96875 C 2.859375 -28.488281 3.023438 -28.890625 3.359375 -29.171875 C 3.703125 -29.453125 4.171875 -29.59375 4.765625 -29.59375 C 5.316406 -29.59375 5.742188 -29.453125 6.046875 -29.171875 C 6.359375 -28.890625 6.515625 -28.488281 6.515625 -27.96875 L 6.515625 -27.515625 C 6.515625 -26.992188 6.359375 -26.59375 6.046875 -26.3125 C 5.742188 -26.03125 5.300781 -25.890625 4.71875 -25.890625 Z M 4.71875 -25.890625 "/></g></g><g style="fill:#eeaeae;fill-opacity:1;"><g transform="translate(133.944209, 251.048214)"><path style="stroke:none" d="M 60.203125 -53.171875 C 59.046875 -53.171875 58.007812 -53.03125 57.09375 -52.75 C 56.1875 -52.46875 55.375 -52.023438 54.65625 -51.421875 C 53.9375 -50.828125 53.285156 -50.050781 52.703125 -49.09375 C 52.128906 -48.144531 51.601562 -47.003906 51.125 -45.671875 L 32.90625 1.484375 L 28.125 1.484375 L 8.953125 -46.390625 C 8.304688 -48.046875 7.710938 -49.328125 7.171875 -50.234375 C 6.640625 -51.148438 6.0625 -51.820312 5.4375 -52.25 C 4.8125 -52.675781 4.097656 -52.929688 3.296875 -53.015625 C 2.492188 -53.097656 1.503906 -53.148438 0.328125 -53.171875 L 0.328125 -55.21875 L 25 -55.21875 L 25 -53.171875 C 21.757812 -53.148438 19.457031 -52.816406 18.09375 -52.171875 C 16.726562 -51.523438 16.046875 -50.613281 16.046875 -49.4375 C 16.046875 -49.175781 16.101562 -48.84375 16.21875 -48.4375 C 16.34375 -48.03125 16.472656 -47.644531 16.609375 -47.28125 C 19.203125 -40.90625 21.816406 -34.425781 24.453125 -27.84375 C 27.085938 -21.269531 29.707031 -14.796875 32.3125 -8.421875 C 32.414062 -8.691406 32.679688 -9.390625 33.109375 -10.515625 C 33.535156 -11.640625 34.0625 -13.039062 34.6875 -14.71875 C 35.320312 -16.40625 36.03125 -18.285156 36.8125 -20.359375 C 37.601562 -22.429688 38.40625 -24.53125 39.21875 -26.65625 C 40.039062 -28.789062 40.835938 -30.878906 41.609375 -32.921875 C 42.390625 -34.972656 43.09375 -36.804688 43.71875 -38.421875 C 44.351562 -40.046875 44.863281 -41.382812 45.25 -42.4375 C 45.632812 -43.488281 45.851562 -44.082031 45.90625 -44.21875 C 46.414062 -45.425781 46.800781 -46.507812 47.0625 -47.46875 C 47.332031 -48.4375 47.46875 -49.144531 47.46875 -49.59375 C 47.46875 -50.78125 46.804688 -51.671875 45.484375 -52.265625 C 44.160156 -52.867188 42.09375 -53.171875 39.28125 -53.171875 L 39.28125 -55.21875 L 60.203125 -55.21875 Z M 60.203125 -53.171875 "/></g></g><g style="fill:#eeaeae;fill-opacity:1;"><g transform="translate(181.966286, 241.298722)"><path style="stroke:none" d="M 11.6875 0.375 C 9.75 0.375 8.035156 -0.0351562 6.546875 -0.859375 C 5.066406 -1.691406 3.910156 -2.847656 3.078125 -4.328125 C 2.253906 -5.816406 1.84375 -7.550781 1.84375 -9.53125 C 1.84375 -11.675781 2.265625 -13.5 3.109375 -15 C 3.953125 -16.507812 5.046875 -17.671875 6.390625 -18.484375 C 7.734375 -19.304688 9.160156 -19.71875 10.671875 -19.71875 C 11.773438 -19.71875 12.847656 -19.519531 13.890625 -19.125 C 14.929688 -18.738281 15.859375 -18.160156 16.671875 -17.390625 C 17.492188 -16.628906 18.148438 -15.695312 18.640625 -14.59375 C 19.128906 -13.488281 19.398438 -12.207031 19.453125 -10.75 C 19.429688 -10.445312 19.304688 -10.1875 19.078125 -9.96875 C 18.847656 -9.757812 18.582031 -9.65625 18.28125 -9.65625 L 3.171875 -9.65625 L 2.71875 -11.6875 L 17.5625 -11.6875 L 17.078125 -11.234375 L 17.078125 -11.984375 C 16.972656 -13.171875 16.59375 -14.175781 15.9375 -15 C 15.289062 -15.832031 14.5 -16.460938 13.5625 -16.890625 C 12.632812 -17.316406 11.671875 -17.53125 10.671875 -17.53125 C 9.910156 -17.53125 9.132812 -17.378906 8.34375 -17.078125 C 7.550781 -16.773438 6.832031 -16.300781 6.1875 -15.65625 C 5.550781 -15.019531 5.03125 -14.203125 4.625 -13.203125 C 4.226562 -12.210938 4.03125 -11.039062 4.03125 -9.6875 C 4.03125 -8.207031 4.332031 -6.863281 4.9375 -5.65625 C 5.539062 -4.445312 6.414062 -3.488281 7.5625 -2.78125 C 8.707031 -2.082031 10.070312 -1.734375 11.65625 -1.734375 C 12.53125 -1.734375 13.316406 -1.859375 14.015625 -2.109375 C 14.722656 -2.359375 15.34375 -2.691406 15.875 -3.109375 C 16.40625 -3.523438 16.84375 -3.957031 17.1875 -4.40625 C 17.46875 -4.632812 17.742188 -4.75 18.015625 -4.75 C 18.273438 -4.75 18.5 -4.644531 18.6875 -4.4375 C 18.875 -4.238281 18.96875 -4.015625 18.96875 -3.765625 C 18.96875 -3.460938 18.84375 -3.203125 18.59375 -2.984375 C 17.832031 -2.078125 16.847656 -1.289062 15.640625 -0.625 C 14.441406 0.0390625 13.125 0.375 11.6875 0.375 Z M 11.6875 0.375 "/></g></g><g style="fill:#eeaeae;fill-opacity:1;"><g transform="translate(203.269959, 241.298722)"><path style="stroke:none" d="M 4.109375 0 C 3.753906 0 3.476562 -0.109375 3.28125 -0.328125 C 3.082031 -0.554688 2.984375 -0.820312 2.984375 -1.125 L 2.984375 -18.015625 C 2.984375 -18.316406 3.085938 -18.582031 3.296875 -18.8125 C 3.515625 -19.039062 3.785156 -19.15625 4.109375 -19.15625 C 4.429688 -19.15625 4.695312 -19.039062 4.90625 -18.8125 C 5.125 -18.582031 5.234375 -18.316406 5.234375 -18.015625 L 5.234375 -12.359375 L 4.671875 -12.25 C 4.742188 -13.132812 4.960938 -14.007812 5.328125 -14.875 C 5.691406 -15.738281 6.1875 -16.535156 6.8125 -17.265625 C 7.445312 -17.992188 8.195312 -18.582031 9.0625 -19.03125 C 9.9375 -19.488281 10.910156 -19.71875 11.984375 -19.71875 C 12.441406 -19.71875 12.882812 -19.625 13.3125 -19.4375 C 13.738281 -19.25 13.953125 -18.941406 13.953125 -18.515625 C 13.953125 -18.140625 13.847656 -17.847656 13.640625 -17.640625 C 13.441406 -17.441406 13.207031 -17.34375 12.9375 -17.34375 C 12.707031 -17.34375 12.457031 -17.40625 12.1875 -17.53125 C 11.925781 -17.65625 11.582031 -17.71875 11.15625 -17.71875 C 10.457031 -17.71875 9.753906 -17.507812 9.046875 -17.09375 C 8.347656 -16.675781 7.707031 -16.113281 7.125 -15.40625 C 6.550781 -14.707031 6.09375 -13.925781 5.75 -13.0625 C 5.40625 -12.195312 5.234375 -11.320312 5.234375 -10.4375 L 5.234375 -1.125 C 5.234375 -0.820312 5.117188 -0.554688 4.890625 -0.328125 C 4.671875 -0.109375 4.410156 0 4.109375 0 Z M 4.109375 0 "/></g></g><g style="fill:#eeaeae;fill-opacity:1;"><g transform="translate(217.786621, 241.298722)"><path style="stroke:none" d="M 1.890625 -3.046875 C 1.679688 -3.347656 1.582031 -3.644531 1.59375 -3.9375 C 1.613281 -4.226562 1.773438 -4.460938 2.078125 -4.640625 C 2.273438 -4.816406 2.503906 -4.890625 2.765625 -4.859375 C 3.035156 -4.835938 3.28125 -4.710938 3.5 -4.484375 C 4.1875 -3.609375 5.007812 -2.898438 5.96875 -2.359375 C 6.9375 -1.816406 8.085938 -1.546875 9.421875 -1.546875 C 10.128906 -1.546875 10.828125 -1.664062 11.515625 -1.90625 C 12.210938 -2.144531 12.785156 -2.507812 13.234375 -3 C 13.679688 -3.488281 13.90625 -4.109375 13.90625 -4.859375 C 13.90625 -5.640625 13.679688 -6.269531 13.234375 -6.75 C 12.785156 -7.226562 12.203125 -7.601562 11.484375 -7.875 C 10.765625 -8.15625 10.003906 -8.394531 9.203125 -8.59375 C 8.347656 -8.820312 7.515625 -9.078125 6.703125 -9.359375 C 5.898438 -9.648438 5.191406 -10.015625 4.578125 -10.453125 C 3.960938 -10.898438 3.46875 -11.4375 3.09375 -12.0625 C 2.71875 -12.6875 2.53125 -13.453125 2.53125 -14.359375 C 2.53125 -15.421875 2.816406 -16.351562 3.390625 -17.15625 C 3.972656 -17.957031 4.757812 -18.582031 5.75 -19.03125 C 6.738281 -19.488281 7.863281 -19.71875 9.125 -19.71875 C 9.75 -19.71875 10.425781 -19.632812 11.15625 -19.46875 C 11.882812 -19.3125 12.597656 -19.039062 13.296875 -18.65625 C 14.003906 -18.28125 14.632812 -17.765625 15.1875 -17.109375 C 15.414062 -16.890625 15.53125 -16.632812 15.53125 -16.34375 C 15.53125 -16.050781 15.40625 -15.796875 15.15625 -15.578125 C 14.957031 -15.421875 14.722656 -15.34375 14.453125 -15.34375 C 14.191406 -15.34375 13.972656 -15.441406 13.796875 -15.640625 C 13.191406 -16.328125 12.472656 -16.84375 11.640625 -17.1875 C 10.816406 -17.539062 9.925781 -17.71875 8.96875 -17.71875 C 8.238281 -17.71875 7.550781 -17.597656 6.90625 -17.359375 C 6.269531 -17.117188 5.738281 -16.757812 5.3125 -16.28125 C 4.882812 -15.8125 4.671875 -15.1875 4.671875 -14.40625 C 4.722656 -13.675781 4.976562 -13.082031 5.4375 -12.625 C 5.90625 -12.175781 6.523438 -11.800781 7.296875 -11.5 C 8.066406 -11.195312 8.925781 -10.921875 9.875 -10.671875 C 10.675781 -10.472656 11.445312 -10.234375 12.1875 -9.953125 C 12.9375 -9.671875 13.59375 -9.320312 14.15625 -8.90625 C 14.71875 -8.5 15.171875 -7.976562 15.515625 -7.34375 C 15.859375 -6.71875 16.03125 -5.929688 16.03125 -4.984375 C 16.03125 -3.867188 15.71875 -2.910156 15.09375 -2.109375 C 14.476562 -1.304688 13.65625 -0.691406 12.625 -0.265625 C 11.59375 0.160156 10.453125 0.375 9.203125 0.375 C 7.835938 0.375 6.519531 0.113281 5.25 -0.40625 C 3.988281 -0.9375 2.867188 -1.816406 1.890625 -3.046875 Z M 1.890625 -3.046875 "/></g></g><g style="fill:#eeaeae;fill-opacity:1;"><g transform="translate(235.470555, 241.298722)"><path style="stroke:none" d="M 11.6875 0.375 C 9.75 0.375 8.035156 -0.0351562 6.546875 -0.859375 C 5.066406 -1.691406 3.910156 -2.847656 3.078125 -4.328125 C 2.253906 -5.816406 1.84375 -7.550781 1.84375 -9.53125 C 1.84375 -11.675781 2.265625 -13.5 3.109375 -15 C 3.953125 -16.507812 5.046875 -17.671875 6.390625 -18.484375 C 7.734375 -19.304688 9.160156 -19.71875 10.671875 -19.71875 C 11.773438 -19.71875 12.847656 -19.519531 13.890625 -19.125 C 14.929688 -18.738281 15.859375 -18.160156 16.671875 -17.390625 C 17.492188 -16.628906 18.148438 -15.695312 18.640625 -14.59375 C 19.128906 -13.488281 19.398438 -12.207031 19.453125 -10.75 C 19.429688 -10.445312 19.304688 -10.1875 19.078125 -9.96875 C 18.847656 -9.757812 18.582031 -9.65625 18.28125 -9.65625 L 3.171875 -9.65625 L 2.71875 -11.6875 L 17.5625 -11.6875 L 17.078125 -11.234375 L 17.078125 -11.984375 C 16.972656 -13.171875 16.59375 -14.175781 15.9375 -15 C 15.289062 -15.832031 14.5 -16.460938 13.5625 -16.890625 C 12.632812 -17.316406 11.671875 -17.53125 10.671875 -17.53125 C 9.910156 -17.53125 9.132812 -17.378906 8.34375 -17.078125 C 7.550781 -16.773438 6.832031 -16.300781 6.1875 -15.65625 C 5.550781 -15.019531 5.03125 -14.203125 4.625 -13.203125 C 4.226562 -12.210938 4.03125 -11.039062 4.03125 -9.6875 C 4.03125 -8.207031 4.332031 -6.863281 4.9375 -5.65625 C 5.539062 -4.445312 6.414062 -3.488281 7.5625 -2.78125 C 8.707031 -2.082031 10.070312 -1.734375 11.65625 -1.734375 C 12.53125 -1.734375 13.316406 -1.859375 14.015625 -2.109375 C 14.722656 -2.359375 15.34375 -2.691406 15.875 -3.109375 C 16.40625 -3.523438 16.84375 -3.957031 17.1875 -4.40625 C 17.46875 -4.632812 17.742188 -4.75 18.015625 -4.75 C 18.273438 -4.75 18.5 -4.644531 18.6875 -4.4375 C 18.875 -4.238281 18.96875 -4.015625 18.96875 -3.765625 C 18.96875 -3.460938 18.84375 -3.203125 18.59375 -2.984375 C 17.832031 -2.078125 16.847656 -1.289062 15.640625 -0.625 C 14.441406 0.0390625 13.125 0.375 11.6875 0.375 Z M 11.6875 0.375 "/></g></g><g style="fill:#eeaeae;fill-opacity:1;"><g transform="translate(247.996734, 265.309837)"><path style="stroke:none" d="M 0.90625 -1.484375 C 0.8125 -1.628906 0.765625 -1.769531 0.765625 -1.90625 C 0.773438 -2.050781 0.851562 -2.164062 1 -2.25 C 1.101562 -2.332031 1.21875 -2.367188 1.34375 -2.359375 C 1.46875 -2.347656 1.585938 -2.285156 1.703125 -2.171875 C 2.023438 -1.742188 2.421875 -1.398438 2.890625 -1.140625 C 3.359375 -0.878906 3.914062 -0.75 4.5625 -0.75 C 4.90625 -0.75 5.242188 -0.804688 5.578125 -0.921875 C 5.910156 -1.035156 6.1875 -1.210938 6.40625 -1.453125 C 6.625 -1.691406 6.734375 -1.992188 6.734375 -2.359375 C 6.734375 -2.734375 6.625 -3.035156 6.40625 -3.265625 C 6.1875 -3.492188 5.90625 -3.675781 5.5625 -3.8125 C 5.21875 -3.945312 4.847656 -4.066406 4.453125 -4.171875 C 4.035156 -4.273438 3.632812 -4.394531 3.25 -4.53125 C 2.863281 -4.675781 2.519531 -4.851562 2.21875 -5.0625 C 1.914062 -5.28125 1.671875 -5.539062 1.484375 -5.84375 C 1.304688 -6.144531 1.21875 -6.515625 1.21875 -6.953125 C 1.21875 -7.460938 1.359375 -7.910156 1.640625 -8.296875 C 1.921875 -8.691406 2.300781 -9 2.78125 -9.21875 C 3.257812 -9.4375 3.804688 -9.546875 4.421875 -9.546875 C 4.722656 -9.546875 5.050781 -9.503906 5.40625 -9.421875 C 5.757812 -9.347656 6.101562 -9.21875 6.4375 -9.03125 C 6.78125 -8.851562 7.085938 -8.609375 7.359375 -8.296875 C 7.472656 -8.179688 7.53125 -8.050781 7.53125 -7.90625 C 7.53125 -7.769531 7.46875 -7.648438 7.34375 -7.546875 C 7.25 -7.472656 7.132812 -7.4375 7 -7.4375 C 6.875 -7.4375 6.769531 -7.484375 6.6875 -7.578125 C 6.394531 -7.910156 6.046875 -8.160156 5.640625 -8.328125 C 5.242188 -8.492188 4.8125 -8.578125 4.34375 -8.578125 C 3.988281 -8.578125 3.65625 -8.519531 3.34375 -8.40625 C 3.039062 -8.289062 2.785156 -8.117188 2.578125 -7.890625 C 2.367188 -7.660156 2.265625 -7.359375 2.265625 -6.984375 C 2.285156 -6.628906 2.410156 -6.34375 2.640625 -6.125 C 2.867188 -5.90625 3.164062 -5.722656 3.53125 -5.578125 C 3.90625 -5.429688 4.320312 -5.296875 4.78125 -5.171875 C 5.175781 -5.066406 5.550781 -4.945312 5.90625 -4.8125 C 6.269531 -4.6875 6.585938 -4.519531 6.859375 -4.3125 C 7.128906 -4.113281 7.347656 -3.863281 7.515625 -3.5625 C 7.679688 -3.257812 7.765625 -2.875 7.765625 -2.40625 C 7.765625 -1.875 7.613281 -1.410156 7.3125 -1.015625 C 7.019531 -0.628906 6.625 -0.332031 6.125 -0.125 C 5.625 0.0820312 5.066406 0.1875 4.453125 0.1875 C 3.796875 0.1875 3.160156 0.0625 2.546875 -0.1875 C 1.929688 -0.445312 1.382812 -0.878906 0.90625 -1.484375 Z M 0.90625 -1.484375 "/></g></g><g style="fill:#eeaeae;fill-opacity:1;"><g transform="translate(256.562731, 265.309837)"><path style="stroke:none" d="M 0.84375 -9.296875 L 5.09375 -9.296875 C 5.238281 -9.296875 5.359375 -9.242188 5.453125 -9.140625 C 5.554688 -9.035156 5.609375 -8.910156 5.609375 -8.765625 C 5.609375 -8.628906 5.554688 -8.515625 5.453125 -8.421875 C 5.359375 -8.328125 5.238281 -8.28125 5.09375 -8.28125 L 0.84375 -8.28125 C 0.695312 -8.28125 0.570312 -8.328125 0.46875 -8.421875 C 0.363281 -8.523438 0.3125 -8.644531 0.3125 -8.78125 C 0.3125 -8.925781 0.363281 -9.046875 0.46875 -9.140625 C 0.570312 -9.242188 0.695312 -9.296875 0.84375 -9.296875 Z M 2.71875 -11.875 C 2.875 -11.875 3.003906 -11.816406 3.109375 -11.703125 C 3.210938 -11.597656 3.265625 -11.472656 3.265625 -11.328125 L 3.265625 -2.15625 C 3.265625 -1.8125 3.3125 -1.550781 3.40625 -1.375 C 3.5 -1.207031 3.617188 -1.097656 3.765625 -1.046875 C 3.910156 -0.992188 4.054688 -0.96875 4.203125 -0.96875 C 4.296875 -0.96875 4.378906 -0.984375 4.453125 -1.015625 C 4.535156 -1.046875 4.628906 -1.0625 4.734375 -1.0625 C 4.835938 -1.0625 4.925781 -1.015625 5 -0.921875 C 5.082031 -0.835938 5.125 -0.734375 5.125 -0.609375 C 5.125 -0.429688 5.023438 -0.285156 4.828125 -0.171875 C 4.640625 -0.0546875 4.410156 0 4.140625 0 C 4.035156 0 3.875 -0.0078125 3.65625 -0.03125 C 3.4375 -0.0507812 3.207031 -0.117188 2.96875 -0.234375 C 2.738281 -0.347656 2.546875 -0.550781 2.390625 -0.84375 C 2.242188 -1.132812 2.171875 -1.550781 2.171875 -2.09375 L 2.171875 -11.328125 C 2.171875 -11.472656 2.222656 -11.597656 2.328125 -11.703125 C 2.429688 -11.816406 2.5625 -11.875 2.71875 -11.875 Z M 2.71875 -11.875 "/></g></g><g style="fill:#eeaeae;fill-opacity:1;"><g transform="translate(262.754361, 265.309837)"><path style="stroke:none" d="M 8.421875 -9.28125 C 8.578125 -9.28125 8.707031 -9.222656 8.8125 -9.109375 C 8.914062 -9.003906 8.96875 -8.878906 8.96875 -8.734375 L 8.96875 -3.578125 C 8.96875 -2.367188 8.625 -1.445312 7.9375 -0.8125 C 7.257812 -0.1875 6.34375 0.125 5.1875 0.125 C 4.039062 0.125 3.128906 -0.1875 2.453125 -0.8125 C 1.773438 -1.445312 1.4375 -2.367188 1.4375 -3.578125 L 1.4375 -8.734375 C 1.4375 -8.878906 1.488281 -9.003906 1.59375 -9.109375 C 1.695312 -9.222656 1.828125 -9.28125 1.984375 -9.28125 C 2.148438 -9.28125 2.28125 -9.222656 2.375 -9.109375 C 2.476562 -9.003906 2.53125 -8.878906 2.53125 -8.734375 L 2.53125 -3.578125 C 2.53125 -2.703125 2.765625 -2.035156 3.234375 -1.578125 C 3.710938 -1.117188 4.363281 -0.890625 5.1875 -0.890625 C 6.03125 -0.890625 6.6875 -1.117188 7.15625 -1.578125 C 7.632812 -2.035156 7.875 -2.703125 7.875 -3.578125 L 7.875 -8.734375 C 7.875 -8.878906 7.921875 -9.003906 8.015625 -9.109375 C 8.117188 -9.222656 8.253906 -9.28125 8.421875 -9.28125 Z M 8.421875 -9.28125 "/></g></g><g style="fill:#eeaeae;fill-opacity:1;"><g transform="translate(273.146797, 265.309837)"><path style="stroke:none" d="M 9.09375 -13.515625 C 9.25 -13.515625 9.378906 -13.460938 9.484375 -13.359375 C 9.585938 -13.253906 9.640625 -13.125 9.640625 -12.96875 L 9.640625 -0.546875 C 9.640625 -0.398438 9.582031 -0.269531 9.46875 -0.15625 C 9.363281 -0.0507812 9.238281 0 9.09375 0 C 8.9375 0 8.804688 -0.0507812 8.703125 -0.15625 C 8.597656 -0.269531 8.546875 -0.398438 8.546875 -0.546875 L 8.546875 -2.71875 L 8.859375 -2.984375 C 8.859375 -2.640625 8.765625 -2.28125 8.578125 -1.90625 C 8.398438 -1.539062 8.144531 -1.195312 7.8125 -0.875 C 7.476562 -0.5625 7.085938 -0.304688 6.640625 -0.109375 C 6.191406 0.0859375 5.710938 0.1875 5.203125 0.1875 C 4.390625 0.1875 3.65625 -0.0234375 3 -0.453125 C 2.351562 -0.878906 1.835938 -1.457031 1.453125 -2.1875 C 1.078125 -2.914062 0.890625 -3.75 0.890625 -4.6875 C 0.890625 -5.613281 1.078125 -6.445312 1.453125 -7.1875 C 1.835938 -7.925781 2.351562 -8.503906 3 -8.921875 C 3.644531 -9.335938 4.375 -9.546875 5.1875 -9.546875 C 5.6875 -9.546875 6.160156 -9.453125 6.609375 -9.265625 C 7.054688 -9.085938 7.453125 -8.84375 7.796875 -8.53125 C 8.148438 -8.21875 8.425781 -7.851562 8.625 -7.4375 C 8.832031 -7.03125 8.9375 -6.609375 8.9375 -6.171875 L 8.546875 -6.453125 L 8.546875 -12.96875 C 8.546875 -13.113281 8.597656 -13.238281 8.703125 -13.34375 C 8.804688 -13.457031 8.9375 -13.515625 9.09375 -13.515625 Z M 5.296875 -0.84375 C 5.953125 -0.84375 6.523438 -1.007812 7.015625 -1.34375 C 7.515625 -1.675781 7.90625 -2.128906 8.1875 -2.703125 C 8.476562 -3.285156 8.625 -3.945312 8.625 -4.6875 C 8.625 -5.425781 8.476562 -6.082031 8.1875 -6.65625 C 7.90625 -7.238281 7.515625 -7.695312 7.015625 -8.03125 C 6.515625 -8.363281 5.941406 -8.53125 5.296875 -8.53125 C 4.660156 -8.53125 4.085938 -8.363281 3.578125 -8.03125 C 3.078125 -7.695312 2.679688 -7.238281 2.390625 -6.65625 C 2.109375 -6.082031 1.96875 -5.425781 1.96875 -4.6875 C 1.96875 -3.957031 2.109375 -3.300781 2.390625 -2.71875 C 2.679688 -2.132812 3.078125 -1.675781 3.578125 -1.34375 C 4.085938 -1.007812 4.660156 -0.84375 5.296875 -0.84375 Z M 5.296875 -0.84375 "/></g></g><g style="fill:#eeaeae;fill-opacity:1;"><g transform="translate(284.215019, 265.309837)"><path style="stroke:none" d="M 2.5 -0.546875 C 2.5 -0.398438 2.441406 -0.269531 2.328125 -0.15625 C 2.222656 -0.0507812 2.097656 0 1.953125 0 C 1.796875 0 1.664062 -0.0507812 1.5625 -0.15625 C 1.457031 -0.269531 1.40625 -0.398438 1.40625 -0.546875 L 1.40625 -8.953125 C 1.40625 -9.097656 1.457031 -9.222656 1.5625 -9.328125 C 1.664062 -9.441406 1.796875 -9.5 1.953125 -9.5 C 2.109375 -9.5 2.238281 -9.441406 2.34375 -9.328125 C 2.445312 -9.222656 2.5 -9.097656 2.5 -8.953125 Z M 1.96875 -10.71875 C 1.707031 -10.71875 1.507812 -10.773438 1.375 -10.890625 C 1.25 -11.015625 1.1875 -11.1875 1.1875 -11.40625 L 1.1875 -11.578125 C 1.1875 -11.796875 1.253906 -11.960938 1.390625 -12.078125 C 1.535156 -12.203125 1.734375 -12.265625 1.984375 -12.265625 C 2.210938 -12.265625 2.390625 -12.203125 2.515625 -12.078125 C 2.640625 -11.960938 2.703125 -11.796875 2.703125 -11.578125 L 2.703125 -11.40625 C 2.703125 -11.1875 2.640625 -11.015625 2.515625 -10.890625 C 2.390625 -10.773438 2.207031 -10.71875 1.96875 -10.71875 Z M 1.96875 -10.71875 "/></g></g><g style="fill:#eeaeae;fill-opacity:1;"><g transform="translate(288.123599, 265.309837)"><path style="stroke:none" d="M 10.140625 -4.671875 C 10.140625 -3.742188 9.9375 -2.910156 9.53125 -2.171875 C 9.132812 -1.441406 8.585938 -0.863281 7.890625 -0.4375 C 7.191406 -0.0195312 6.398438 0.1875 5.515625 0.1875 C 4.648438 0.1875 3.867188 -0.0195312 3.171875 -0.4375 C 2.472656 -0.863281 1.914062 -1.441406 1.5 -2.171875 C 1.09375 -2.910156 0.890625 -3.742188 0.890625 -4.671875 C 0.890625 -5.609375 1.09375 -6.441406 1.5 -7.171875 C 1.914062 -7.910156 2.472656 -8.488281 3.171875 -8.90625 C 3.867188 -9.332031 4.648438 -9.546875 5.515625 -9.546875 C 6.398438 -9.546875 7.191406 -9.332031 7.890625 -8.90625 C 8.585938 -8.488281 9.132812 -7.910156 9.53125 -7.171875 C 9.9375 -6.441406 10.140625 -5.609375 10.140625 -4.671875 Z M 9.046875 -4.671875 C 9.046875 -5.421875 8.890625 -6.082031 8.578125 -6.65625 C 8.273438 -7.238281 7.859375 -7.695312 7.328125 -8.03125 C 6.804688 -8.363281 6.203125 -8.53125 5.515625 -8.53125 C 4.859375 -8.53125 4.257812 -8.363281 3.71875 -8.03125 C 3.1875 -7.695312 2.765625 -7.238281 2.453125 -6.65625 C 2.140625 -6.082031 1.984375 -5.421875 1.984375 -4.671875 C 1.984375 -3.929688 2.140625 -3.273438 2.453125 -2.703125 C 2.765625 -2.128906 3.1875 -1.675781 3.71875 -1.34375 C 4.257812 -1.007812 4.859375 -0.84375 5.515625 -0.84375 C 6.203125 -0.84375 6.804688 -1.007812 7.328125 -1.34375 C 7.859375 -1.675781 8.273438 -2.128906 8.578125 -2.703125 C 8.890625 -3.273438 9.046875 -3.929688 9.046875 -4.671875 Z M 9.046875 -4.671875 "/></g></g></g></svg>