<svg xmlns="http://www.w3.org/2000/svg" xmlns:xlink="http://www.w3.org/1999/xlink" width="500" zoomAndPan="magnify" viewBox="0 0 375 374.999991" height="500" preserveAspectRatio="xMidYMid meet" version="1.2"><defs><filter x="0%" y="0%" width="100%" filterUnits="objectBoundingBox" id="2da8d158ae" height="100%"><feColorMatrix values="0 0 0 0 1 0 0 0 0 1 0 0 0 0 1 0 0 0 1 0" type="matrix" in="SourceGraphic"/></filter><clipPath id="f1fed88454"><path d="M 16 47 L 224 47 L 224 206 L 16 206 Z M 16 47 "/></clipPath><clipPath id="384b22356e"><path d="M 50.242188 260.03125 L -18.089844 50.386719 L 178.71875 -13.761719 L 247.050781 195.886719 Z M 50.242188 260.03125 "/></clipPath><clipPath id="e390b44f2e"><path d="M 102.296875 243.066406 L 194.535156 213 C 223.285156 203.632812 238.996094 172.730469 229.625 143.980469 L 195.292969 38.648438 C 185.921875 9.902344 155.019531 -5.808594 126.273438 3.5625 L 34.03125 33.625 C 5.28125 42.996094 -10.425781 73.898438 -1.054688 102.648438 L 33.273438 207.976562 C 42.644531 236.726562 73.546875 252.4375 102.296875 243.066406 Z M 102.296875 243.066406 "/></clipPath><clipPath id="c73ceeca71"><path d="M 50.242188 260.03125 L -18.089844 50.386719 L 178.007812 -13.527344 L 246.339844 196.117188 Z M 50.242188 260.03125 "/></clipPath><clipPath id="025c40ec0d"><path d="M 50.242188 260.03125 L -18.089844 50.386719 L 178.007812 -13.527344 L 246.339844 196.117188 Z M 50.242188 260.03125 "/></clipPath><clipPath id="ece29be77b"><path d="M 11 42 L 230 42 L 230 210 L 11 210 Z M 11 42 "/></clipPath><clipPath id="197ac7b78f"><path d="M 50.242188 260.03125 L -18.089844 50.386719 L 178.71875 -13.761719 L 247.050781 195.886719 Z M 50.242188 260.03125 "/></clipPath><clipPath id="b2501b68e0"><path d="M 102.296875 243.066406 L 194.535156 213 C 223.285156 203.632812 238.996094 172.730469 229.625 143.980469 L 195.292969 38.648438 C 185.921875 9.902344 155.019531 -5.808594 126.273438 3.5625 L 34.03125 33.625 C 5.28125 42.996094 -10.425781 73.898438 -1.054688 102.648438 L 33.273438 207.976562 C 42.644531 236.726562 73.546875 252.4375 102.296875 243.066406 Z M 102.296875 243.066406 "/></clipPath><clipPath id="204d6dc09b"><path d="M 50.242188 260.03125 L -18.089844 50.386719 L 178.007812 -13.527344 L 246.339844 196.117188 Z M 50.242188 260.03125 "/></clipPath><clipPath id="7bb2d73a5c"><path d="M 50.242188 260.03125 L -18.089844 50.386719 L 178.007812 -13.527344 L 246.339844 196.117188 Z M 50.242188 260.03125 "/></clipPath><clipPath id="08a51db222"><rect x="0" width="241" y="0" height="256"/></clipPath><clipPath id="6b92fea2b7"><path d="M 226 192 L 243 192 L 243 220 L 226 220 Z M 226 192 "/></clipPath><clipPath id="25dec4dbfa"><path d="M 215.089844 198.691406 L 241.605469 172.175781 L 262.820312 193.386719 L 236.304688 219.90625 Z M 215.089844 198.691406 "/></clipPath><clipPath id="5d4efa20cb"><path d="M 215.089844 198.691406 L 241.605469 172.175781 L 262.820312 193.386719 L 236.304688 219.90625 Z M 215.089844 198.691406 "/></clipPath><clipPath id="22fc118e37"><path d="M 237 172 L 249 172 L 249 191 L 237 191 Z M 237 172 "/></clipPath><clipPath id="6188faad9f"><path d="M 215.089844 198.691406 L 241.605469 172.175781 L 262.820312 193.386719 L 236.304688 219.90625 Z M 215.089844 198.691406 "/></clipPath><clipPath id="1d770bc4eb"><path d="M 215.089844 198.691406 L 241.605469 172.175781 L 262.820312 193.386719 L 236.304688 219.90625 Z M 215.089844 198.691406 "/></clipPath><clipPath id="9be901fb49"><path d="M 228 192 L 231 192 L 231 195 L 228 195 Z M 228 192 "/></clipPath><clipPath id="cdb37136e7"><path d="M 215.089844 198.691406 L 241.605469 172.175781 L 262.820312 193.386719 L 236.304688 219.90625 Z M 215.089844 198.691406 "/></clipPath><clipPath id="c4ecd1e057"><path d="M 215.089844 198.691406 L 241.605469 172.175781 L 262.820312 193.386719 L 236.304688 219.90625 Z M 215.089844 198.691406 "/></clipPath><clipPath id="ee5ab1c01a"><path d="M 245 189 L 248 189 L 248 192 L 245 192 Z M 245 189 "/></clipPath><clipPath id="445e8d1fc5"><path d="M 215.089844 198.691406 L 241.605469 172.175781 L 262.820312 193.386719 L 236.304688 219.90625 Z M 215.089844 198.691406 "/></clipPath><clipPath id="dec8faa700"><path d="M 215.089844 198.691406 L 241.605469 172.175781 L 262.820312 193.386719 L 236.304688 219.90625 Z M 215.089844 198.691406 "/></clipPath><clipPath id="0f46662e88"><path d="M 241 207 L 244 207 L 244 210 L 241 210 Z M 241 207 "/></clipPath><clipPath id="03ab1224f6"><path d="M 215.089844 198.691406 L 241.605469 172.175781 L 262.820312 193.386719 L 236.304688 219.90625 Z M 215.089844 198.691406 "/></clipPath><clipPath id="30c1b37a2d"><path d="M 215.089844 198.691406 L 241.605469 172.175781 L 262.820312 193.386719 L 236.304688 219.90625 Z M 215.089844 198.691406 "/></clipPath></defs><g id="a143acf9c7"><g mask="url(#8dd58b2a04)" transform="matrix(1,0,0,1,91,76)"><g clip-path="url(#08a51db222)"><g clip-rule="nonzero" clip-path="url(#f1fed88454)"><g clip-rule="nonzero" clip-path="url(#384b22356e)"><g clip-rule="nonzero" clip-path="url(#e390b44f2e)"><g clip-rule="nonzero" clip-path="url(#c73ceeca71)"><g clip-rule="nonzero" clip-path="url(#025c40ec0d)"><path style=" stroke:none;fill-rule:nonzero;fill:#000000;fill-opacity:1;" d="M 20 103.867188 C 27.964844 128.449219 49.746094 154.035156 77.292969 174.023438 C 53.996094 155.984375 35.820312 133.753906 28.878906 112.335938 C 15.878906 72.203125 47.242188 50.125 98.933594 63.023438 C 150.625 75.917969 203.0625 118.90625 216.0625 159.039062 C 223 180.460938 217.296875 196.730469 202.613281 205.292969 C 220.914062 196.746094 228.496094 178.492188 220.535156 153.90625 C 206.613281 110.90625 150.429688 64.855469 95.054688 51.039062 C 39.679688 37.21875 6.078125 60.875 20 103.867188 Z M 20 103.867188 "/></g></g></g></g></g><g clip-rule="nonzero" clip-path="url(#ece29be77b)"><g clip-rule="nonzero" clip-path="url(#197ac7b78f)"><g clip-rule="nonzero" clip-path="url(#b2501b68e0)"><g clip-rule="nonzero" clip-path="url(#204d6dc09b)"><g clip-rule="nonzero" clip-path="url(#7bb2d73a5c)"><path style=" stroke:none;fill-rule:nonzero;fill:#000000;fill-opacity:1;" d="M 37.207031 140.617188 C -5.289062 89.644531 6.179688 43.167969 60.910156 42.367188 C 114.882812 40.859375 191.085938 87.089844 218.527344 137.960938 C 236.609375 170.417969 231.136719 199.457031 204.605469 209.574219 C 233.292969 197.234375 235.359375 162.421875 208.953125 125.859375 C 169.902344 70.695312 85.320312 31.804688 39.597656 48.09375 C 4.941406 60.027344 4.136719 99.523438 37.207031 140.617188 Z M 37.207031 140.617188 "/></g></g></g></g></g></g><mask id="8dd58b2a04"><g filter="url(#2da8d158ae)"><rect x="0" width="375" y="0" height="374.999991" style="fill:#000000;fill-opacity:0.46;stroke:none;"/></g></mask></g><g clip-rule="nonzero" clip-path="url(#6b92fea2b7)"><g clip-rule="nonzero" clip-path="url(#25dec4dbfa)"><g clip-rule="nonzero" clip-path="url(#5d4efa20cb)"><path style=" stroke:none;fill-rule:evenodd;fill:#003b73;fill-opacity:1;" d="M 237.238281 212.84375 L 236.242188 211.84375 L 237.238281 210.84375 L 236.242188 209.847656 L 237.238281 208.847656 L 236.242188 207.847656 L 237.238281 206.847656 L 236.242188 205.851562 L 237.238281 204.851562 L 238.238281 203.851562 L 237.238281 202.855469 L 238.238281 201.855469 L 239.238281 202.855469 L 240.238281 201.855469 L 241.234375 202.855469 L 242.234375 201.855469 L 241.234375 200.855469 L 240.238281 201.855469 L 238.238281 199.855469 L 237.238281 198.859375 L 236.242188 197.859375 L 235.242188 196.859375 L 236.242188 195.859375 L 235.242188 194.863281 L 236.242188 193.863281 L 235.242188 192.863281 L 234.242188 193.863281 L 235.242188 194.863281 L 234.242188 195.859375 L 235.242188 196.859375 L 233.242188 198.859375 L 234.242188 199.855469 L 233.242188 200.855469 L 232.246094 199.855469 L 230.246094 201.855469 L 229.25 200.855469 L 228.25 201.855469 L 227.25 200.855469 L 226.25 201.855469 L 227.25 202.855469 L 228.25 201.855469 L 229.25 202.855469 L 230.246094 201.855469 L 231.246094 202.855469 L 232.246094 201.855469 L 233.242188 202.855469 L 232.246094 203.851562 L 233.242188 204.851562 L 234.242188 203.851562 L 235.242188 204.851562 L 234.242188 205.851562 L 235.242188 206.847656 L 236.242188 207.847656 L 235.242188 208.847656 L 236.242188 209.847656 L 235.242188 210.84375 L 236.242188 211.84375 L 235.242188 212.84375 L 236.242188 213.839844 L 235.242188 214.839844 L 236.242188 215.839844 L 237.238281 214.839844 L 236.242188 213.839844 Z M 237.238281 218.835938 L 236.242188 217.835938 L 235.242188 218.835938 L 236.242188 219.835938 Z M 237.238281 218.835938 "/></g></g></g><g clip-rule="nonzero" clip-path="url(#22fc118e37)"><g clip-rule="nonzero" clip-path="url(#6188faad9f)"><g clip-rule="nonzero" clip-path="url(#1d770bc4eb)"><path style=" stroke:none;fill-rule:evenodd;fill:#003b73;fill-opacity:1;" d="M 240.914062 177.019531 L 241.605469 177.710938 L 240.914062 178.402344 L 241.605469 179.09375 L 240.914062 179.785156 L 241.605469 180.476562 L 240.914062 181.167969 L 241.605469 181.859375 L 240.222656 183.242188 L 240.914062 183.933594 L 240.222656 184.625 L 239.53125 183.933594 L 238.839844 184.625 L 238.148438 183.933594 L 237.457031 184.625 L 238.148438 185.316406 L 238.839844 184.625 L 242.296875 188.082031 L 241.605469 188.773438 L 242.296875 189.464844 L 241.605469 190.15625 L 242.296875 190.851562 L 242.988281 190.15625 L 242.296875 189.464844 L 242.988281 188.773438 L 242.296875 188.082031 L 243.679688 186.699219 L 242.988281 186.007812 L 243.679688 185.316406 L 244.371094 186.007812 L 245.753906 184.625 L 246.445312 185.316406 L 247.136719 184.625 L 247.828125 185.316406 L 248.519531 184.625 L 247.828125 183.933594 L 247.136719 184.625 L 246.445312 183.933594 L 245.753906 184.625 L 245.0625 183.933594 L 244.371094 184.625 L 243.679688 183.933594 L 244.371094 183.242188 L 243.679688 182.550781 L 242.988281 183.242188 L 242.296875 182.550781 L 242.988281 181.859375 L 241.605469 180.476562 L 242.296875 179.785156 L 241.605469 179.09375 L 242.296875 178.402344 L 241.605469 177.710938 L 242.296875 177.019531 L 241.605469 176.328125 L 242.296875 175.636719 L 241.605469 174.945312 L 240.914062 175.636719 L 241.605469 176.328125 Z M 240.914062 172.867188 L 241.605469 173.5625 L 242.296875 172.867188 L 241.605469 172.175781 Z M 240.914062 172.867188 "/></g></g></g><g clip-rule="nonzero" clip-path="url(#9be901fb49)"><g clip-rule="nonzero" clip-path="url(#cdb37136e7)"><g clip-rule="nonzero" clip-path="url(#c4ecd1e057)"><path style=" stroke:none;fill-rule:evenodd;fill:#003b73;fill-opacity:1;" d="M 228.847656 193.15625 L 229.84375 192.15625 L 230.84375 193.15625 L 229.84375 194.15625 Z M 228.847656 193.15625 "/></g></g></g><g clip-rule="nonzero" clip-path="url(#ee5ab1c01a)"><g clip-rule="nonzero" clip-path="url(#445e8d1fc5)"><g clip-rule="nonzero" clip-path="url(#dec8faa700)"><path style=" stroke:none;fill-rule:evenodd;fill:#003b73;fill-opacity:1;" d="M 245.871094 190.933594 L 246.871094 189.9375 L 247.871094 190.933594 L 246.871094 191.933594 Z M 245.871094 190.933594 "/></g></g></g><g clip-rule="nonzero" clip-path="url(#0f46662e88)"><g clip-rule="nonzero" clip-path="url(#03ab1224f6)"><g clip-rule="nonzero" clip-path="url(#30c1b37a2d)"><path style=" stroke:none;fill-rule:evenodd;fill:#003b73;fill-opacity:1;" d="M 241.132812 208.703125 L 242.132812 207.703125 L 243.132812 208.703125 L 242.132812 209.699219 Z M 241.132812 208.703125 "/></g></g></g><g style="fill:#003b73;fill-opacity:1;"><g transform="translate(139.716557, 208.668824)"><path style="stroke:none" d="M 39.5625 -34.484375 C 38.707031 -34.410156 37.925781 -34.253906 37.21875 -34.015625 C 36.519531 -33.785156 35.878906 -33.484375 35.296875 -33.109375 C 34.710938 -32.742188 34.179688 -32.296875 33.703125 -31.765625 C 33.234375 -31.234375 32.78125 -30.628906 32.34375 -29.953125 C 32.15625 -29.617188 31.804688 -29.023438 31.296875 -28.171875 C 30.796875 -27.328125 30.222656 -26.351562 29.578125 -25.25 C 28.941406 -24.15625 28.265625 -22.988281 27.546875 -21.75 C 26.828125 -20.519531 26.15625 -19.367188 25.53125 -18.296875 C 24.90625 -17.222656 24.351562 -16.28125 23.875 -15.46875 C 23.394531 -14.664062 23.078125 -14.132812 22.921875 -13.875 L 22.921875 -5.4375 C 22.921875 -4.707031 22.992188 -4.082031 23.140625 -3.5625 C 23.296875 -3.039062 23.550781 -2.617188 23.90625 -2.296875 C 24.257812 -1.984375 24.722656 -1.75 25.296875 -1.59375 C 25.867188 -1.445312 26.570312 -1.375 27.40625 -1.375 L 28.203125 -1.375 L 28.203125 0 L 12.203125 0 L 12.203125 -1.375 L 13.421875 -1.375 C 14.984375 -1.375 16.113281 -1.675781 16.8125 -2.28125 C 17.519531 -2.894531 17.875 -3.910156 17.875 -5.328125 L 17.875 -13.296875 C 17.820312 -13.367188 17.644531 -13.644531 17.34375 -14.125 C 17.039062 -14.613281 16.648438 -15.226562 16.171875 -15.96875 C 15.691406 -16.71875 15.148438 -17.554688 14.546875 -18.484375 C 13.953125 -19.410156 13.351562 -20.351562 12.75 -21.3125 C 12.144531 -22.28125 11.546875 -23.222656 10.953125 -24.140625 C 10.367188 -25.066406 9.84375 -25.890625 9.375 -26.609375 C 8.914062 -27.328125 8.539062 -27.914062 8.25 -28.375 C 7.957031 -28.832031 7.800781 -29.082031 7.78125 -29.125 C 6.8125 -30.613281 5.945312 -31.742188 5.1875 -32.515625 C 4.4375 -33.285156 3.75 -33.785156 3.125 -34.015625 C 2.726562 -34.148438 2.265625 -34.253906 1.734375 -34.328125 C 1.203125 -34.410156 0.585938 -34.460938 -0.109375 -34.484375 L -0.109375 -35.8125 L 15.375 -35.8125 L 15.375 -34.484375 C 12.675781 -34.484375 11.328125 -34.050781 11.328125 -33.1875 C 11.328125 -32.882812 11.507812 -32.394531 11.875 -31.71875 C 12.25 -31.039062 12.703125 -30.289062 13.234375 -29.46875 C 13.765625 -28.644531 14.320312 -27.800781 14.90625 -26.9375 C 15.5 -26.070312 16.015625 -25.304688 16.453125 -24.640625 C 16.515625 -24.535156 16.671875 -24.289062 16.921875 -23.90625 C 17.179688 -23.53125 17.484375 -23.082031 17.828125 -22.5625 C 18.171875 -22.039062 18.53125 -21.484375 18.90625 -20.890625 C 19.289062 -20.304688 19.648438 -19.75 19.984375 -19.21875 C 20.328125 -18.6875 20.625 -18.222656 20.875 -17.828125 C 21.132812 -17.441406 21.296875 -17.195312 21.359375 -17.09375 C 21.453125 -17.238281 21.703125 -17.65625 22.109375 -18.34375 C 22.515625 -19.039062 23 -19.875 23.5625 -20.84375 C 24.125 -21.8125 24.726562 -22.847656 25.375 -23.953125 C 26.03125 -25.054688 26.640625 -26.078125 27.203125 -27.015625 C 27.765625 -27.960938 28.238281 -28.757812 28.625 -29.40625 C 29.007812 -30.0625 29.21875 -30.4375 29.25 -30.53125 C 29.507812 -31.03125 29.71875 -31.46875 29.875 -31.84375 C 30.03125 -32.21875 30.109375 -32.550781 30.109375 -32.84375 C 30.109375 -33.382812 29.804688 -33.789062 29.203125 -34.0625 C 28.609375 -34.34375 27.671875 -34.484375 26.390625 -34.484375 L 26.390625 -35.8125 L 39.5625 -35.8125 Z M 39.5625 -34.484375 "/></g></g><g style="fill:#333652;fill-opacity:1;"><g transform="translate(169.967874, 202.178522)"><path style="stroke:none" d="M 3.796875 -0.78125 C 3.796875 -0.570312 3.71875 -0.390625 3.5625 -0.234375 C 3.40625 -0.078125 3.222656 0 3.015625 0 C 2.785156 0 2.597656 -0.078125 2.453125 -0.234375 C 2.304688 -0.390625 2.234375 -0.570312 2.234375 -0.78125 L 2.234375 -18.625 C 2.234375 -18.832031 2.3125 -19.015625 2.46875 -19.171875 C 2.625 -19.328125 2.804688 -19.40625 3.015625 -19.40625 C 3.242188 -19.40625 3.429688 -19.328125 3.578125 -19.171875 C 3.722656 -19.015625 3.796875 -18.832031 3.796875 -18.625 Z M 3.796875 -0.78125 "/></g></g><g style="fill:#333652;fill-opacity:1;"><g transform="translate(175.34577, 202.178522)"><path style="stroke:none" d="M 1.75 -13.6875 C 1.894531 -13.6875 2.035156 -13.644531 2.171875 -13.5625 C 2.316406 -13.476562 2.425781 -13.347656 2.5 -13.171875 L 7.078125 -2.25 L 6.75 -2.046875 L 11.4375 -13.171875 C 11.570312 -13.515625 11.828125 -13.679688 12.203125 -13.671875 C 12.378906 -13.671875 12.546875 -13.613281 12.703125 -13.5 C 12.859375 -13.382812 12.9375 -13.222656 12.9375 -13.015625 C 12.9375 -12.910156 12.921875 -12.828125 12.890625 -12.765625 C 12.867188 -12.703125 12.847656 -12.632812 12.828125 -12.5625 L 7.6875 -0.5 C 7.550781 -0.1875 7.316406 -0.0195312 6.984375 0 C 6.828125 0.0195312 6.671875 -0.015625 6.515625 -0.109375 C 6.367188 -0.210938 6.257812 -0.34375 6.1875 -0.5 L 1.015625 -12.5625 C 1.003906 -12.601562 0.988281 -12.65625 0.96875 -12.71875 C 0.945312 -12.789062 0.9375 -12.863281 0.9375 -12.9375 C 0.9375 -13.125 1.003906 -13.296875 1.140625 -13.453125 C 1.285156 -13.609375 1.488281 -13.6875 1.75 -13.6875 Z M 1.75 -13.6875 "/></g></g><g style="fill:#333652;fill-opacity:1;"><g transform="translate(189.223383, 202.178522)"><path style="stroke:none" d="M 3.59375 -0.78125 C 3.59375 -0.570312 3.515625 -0.390625 3.359375 -0.234375 C 3.203125 -0.078125 3.019531 0 2.8125 0 C 2.582031 0 2.390625 -0.078125 2.234375 -0.234375 C 2.085938 -0.390625 2.015625 -0.570312 2.015625 -0.78125 L 2.015625 -12.859375 C 2.015625 -13.066406 2.085938 -13.25 2.234375 -13.40625 C 2.390625 -13.5625 2.582031 -13.640625 2.8125 -13.640625 C 3.03125 -13.640625 3.210938 -13.5625 3.359375 -13.40625 C 3.515625 -13.25 3.59375 -13.066406 3.59375 -12.859375 Z M 2.796875 -15.390625 C 2.429688 -15.390625 2.15625 -15.472656 1.96875 -15.640625 C 1.789062 -15.804688 1.703125 -16.046875 1.703125 -16.359375 L 1.703125 -16.625 C 1.703125 -16.9375 1.800781 -17.175781 2 -17.34375 C 2.207031 -17.507812 2.484375 -17.59375 2.828125 -17.59375 C 3.160156 -17.59375 3.414062 -17.507812 3.59375 -17.34375 C 3.78125 -17.175781 3.875 -16.9375 3.875 -16.625 L 3.875 -16.359375 C 3.875 -16.046875 3.78125 -15.804688 3.59375 -15.640625 C 3.414062 -15.472656 3.148438 -15.390625 2.796875 -15.390625 Z M 2.796875 -15.390625 "/></g></g><g style="fill:#003b73;fill-opacity:1;"><g transform="translate(179.70402, 246.901414)"><path style="stroke:none" d="M 35.8125 -31.625 C 35.125 -31.625 34.507812 -31.539062 33.96875 -31.375 C 33.425781 -31.207031 32.941406 -30.945312 32.515625 -30.59375 C 32.085938 -30.238281 31.703125 -29.773438 31.359375 -29.203125 C 31.015625 -28.640625 30.695312 -27.960938 30.40625 -27.171875 L 19.578125 0.890625 L 16.734375 0.890625 L 5.328125 -27.59375 C 4.941406 -28.582031 4.585938 -29.347656 4.265625 -29.890625 C 3.953125 -30.429688 3.609375 -30.828125 3.234375 -31.078125 C 2.859375 -31.335938 2.429688 -31.488281 1.953125 -31.53125 C 1.472656 -31.582031 0.882812 -31.613281 0.1875 -31.625 L 0.1875 -32.84375 L 14.875 -32.84375 L 14.875 -31.625 C 12.945312 -31.613281 11.578125 -31.414062 10.765625 -31.03125 C 9.953125 -30.65625 9.546875 -30.113281 9.546875 -29.40625 C 9.546875 -29.25 9.582031 -29.050781 9.65625 -28.8125 C 9.726562 -28.570312 9.804688 -28.34375 9.890625 -28.125 C 11.429688 -24.332031 12.984375 -20.476562 14.546875 -16.5625 C 16.117188 -12.644531 17.675781 -8.796875 19.21875 -5.015625 C 19.28125 -5.171875 19.4375 -5.582031 19.6875 -6.25 C 19.945312 -6.914062 20.265625 -7.75 20.640625 -8.75 C 21.015625 -9.757812 21.4375 -10.878906 21.90625 -12.109375 C 22.375 -13.347656 22.847656 -14.597656 23.328125 -15.859375 C 23.816406 -17.128906 24.289062 -18.367188 24.75 -19.578125 C 25.21875 -20.796875 25.632812 -21.882812 26 -22.84375 C 26.375 -23.8125 26.675781 -24.609375 26.90625 -25.234375 C 27.144531 -25.867188 27.28125 -26.226562 27.3125 -26.3125 C 27.613281 -27.019531 27.84375 -27.660156 28 -28.234375 C 28.15625 -28.804688 28.234375 -29.226562 28.234375 -29.5 C 28.234375 -30.207031 27.835938 -30.738281 27.046875 -31.09375 C 26.265625 -31.445312 25.039062 -31.625 23.375 -31.625 L 23.375 -32.84375 L 35.8125 -32.84375 Z M 35.8125 -31.625 "/></g></g><g style="fill:#333652;fill-opacity:1;"><g transform="translate(208.266756, 241.10256)"><path style="stroke:none" d="M 6.953125 0.21875 C 5.796875 0.21875 4.773438 -0.0234375 3.890625 -0.515625 C 3.015625 -1.003906 2.328125 -1.691406 1.828125 -2.578125 C 1.335938 -3.460938 1.09375 -4.492188 1.09375 -5.671875 C 1.09375 -6.941406 1.34375 -8.023438 1.84375 -8.921875 C 2.34375 -9.816406 2.992188 -10.507812 3.796875 -11 C 4.597656 -11.488281 5.445312 -11.734375 6.34375 -11.734375 C 7 -11.734375 7.632812 -11.613281 8.25 -11.375 C 8.875 -11.144531 9.429688 -10.800781 9.921875 -10.34375 C 10.410156 -9.882812 10.800781 -9.328125 11.09375 -8.671875 C 11.382812 -8.015625 11.539062 -7.253906 11.5625 -6.390625 C 11.550781 -6.210938 11.476562 -6.054688 11.34375 -5.921875 C 11.207031 -5.796875 11.050781 -5.734375 10.875 -5.734375 L 1.890625 -5.734375 L 1.609375 -6.953125 L 10.453125 -6.953125 L 10.15625 -6.6875 L 10.15625 -7.125 C 10.09375 -7.832031 9.867188 -8.429688 9.484375 -8.921875 C 9.097656 -9.410156 8.628906 -9.78125 8.078125 -10.03125 C 7.523438 -10.289062 6.945312 -10.421875 6.34375 -10.421875 C 5.894531 -10.421875 5.4375 -10.332031 4.96875 -10.15625 C 4.5 -9.976562 4.070312 -9.695312 3.6875 -9.3125 C 3.300781 -8.9375 2.988281 -8.453125 2.75 -7.859375 C 2.519531 -7.265625 2.40625 -6.566406 2.40625 -5.765625 C 2.40625 -4.878906 2.582031 -4.078125 2.9375 -3.359375 C 3.289062 -2.640625 3.804688 -2.070312 4.484375 -1.65625 C 5.171875 -1.238281 5.984375 -1.03125 6.921875 -1.03125 C 7.453125 -1.03125 7.925781 -1.101562 8.34375 -1.25 C 8.757812 -1.40625 9.125 -1.601562 9.4375 -1.84375 C 9.75 -2.09375 10.007812 -2.351562 10.21875 -2.625 C 10.382812 -2.757812 10.550781 -2.828125 10.71875 -2.828125 C 10.863281 -2.828125 10.992188 -2.765625 11.109375 -2.640625 C 11.222656 -2.523438 11.28125 -2.390625 11.28125 -2.234375 C 11.28125 -2.054688 11.203125 -1.898438 11.046875 -1.765625 C 10.597656 -1.234375 10.015625 -0.769531 9.296875 -0.375 C 8.585938 0.0195312 7.804688 0.21875 6.953125 0.21875 Z M 6.953125 0.21875 "/></g></g><g style="fill:#333652;fill-opacity:1;"><g transform="translate(220.93783, 241.10256)"><path style="stroke:none" d="M 2.4375 0 C 2.226562 0 2.0625 -0.0664062 1.9375 -0.203125 C 1.820312 -0.335938 1.765625 -0.492188 1.765625 -0.671875 L 1.765625 -10.71875 C 1.765625 -10.894531 1.828125 -11.050781 1.953125 -11.1875 C 2.085938 -11.320312 2.25 -11.390625 2.4375 -11.390625 C 2.632812 -11.390625 2.796875 -11.320312 2.921875 -11.1875 C 3.046875 -11.050781 3.109375 -10.894531 3.109375 -10.71875 L 3.109375 -7.359375 L 2.78125 -7.28125 C 2.820312 -7.8125 2.953125 -8.332031 3.171875 -8.84375 C 3.390625 -9.363281 3.6875 -9.835938 4.0625 -10.265625 C 4.4375 -10.703125 4.878906 -11.054688 5.390625 -11.328125 C 5.910156 -11.597656 6.488281 -11.734375 7.125 -11.734375 C 7.394531 -11.734375 7.65625 -11.675781 7.90625 -11.5625 C 8.164062 -11.445312 8.296875 -11.265625 8.296875 -11.015625 C 8.296875 -10.785156 8.234375 -10.609375 8.109375 -10.484375 C 7.992188 -10.367188 7.851562 -10.3125 7.6875 -10.3125 C 7.550781 -10.3125 7.40625 -10.347656 7.25 -10.421875 C 7.09375 -10.492188 6.890625 -10.53125 6.640625 -10.53125 C 6.222656 -10.53125 5.800781 -10.40625 5.375 -10.15625 C 4.957031 -9.914062 4.578125 -9.585938 4.234375 -9.171875 C 3.890625 -8.753906 3.613281 -8.285156 3.40625 -7.765625 C 3.207031 -7.253906 3.109375 -6.734375 3.109375 -6.203125 L 3.109375 -0.671875 C 3.109375 -0.492188 3.039062 -0.335938 2.90625 -0.203125 C 2.78125 -0.0664062 2.625 0 2.4375 0 Z M 2.4375 0 "/></g></g><g style="fill:#333652;fill-opacity:1;"><g transform="translate(229.572101, 241.10256)"><path style="stroke:none" d="M 1.125 -1.8125 C 1 -1.988281 0.941406 -2.160156 0.953125 -2.328125 C 0.960938 -2.503906 1.054688 -2.648438 1.234375 -2.765625 C 1.347656 -2.867188 1.484375 -2.910156 1.640625 -2.890625 C 1.804688 -2.878906 1.953125 -2.804688 2.078125 -2.671875 C 2.484375 -2.148438 2.972656 -1.726562 3.546875 -1.40625 C 4.128906 -1.082031 4.816406 -0.921875 5.609375 -0.921875 C 6.023438 -0.921875 6.4375 -0.988281 6.84375 -1.125 C 7.257812 -1.269531 7.601562 -1.488281 7.875 -1.78125 C 8.144531 -2.070312 8.28125 -2.441406 8.28125 -2.890625 C 8.28125 -3.359375 8.144531 -3.734375 7.875 -4.015625 C 7.601562 -4.296875 7.253906 -4.519531 6.828125 -4.6875 C 6.398438 -4.851562 5.945312 -4.992188 5.46875 -5.109375 C 4.957031 -5.242188 4.460938 -5.394531 3.984375 -5.5625 C 3.515625 -5.738281 3.09375 -5.957031 2.71875 -6.21875 C 2.351562 -6.476562 2.054688 -6.796875 1.828125 -7.171875 C 1.609375 -7.546875 1.5 -8.003906 1.5 -8.546875 C 1.5 -9.171875 1.671875 -9.722656 2.015625 -10.203125 C 2.359375 -10.679688 2.828125 -11.054688 3.421875 -11.328125 C 4.015625 -11.597656 4.679688 -11.734375 5.421875 -11.734375 C 5.796875 -11.734375 6.195312 -11.679688 6.625 -11.578125 C 7.0625 -11.484375 7.488281 -11.320312 7.90625 -11.09375 C 8.332031 -10.875 8.707031 -10.566406 9.03125 -10.171875 C 9.164062 -10.046875 9.234375 -9.894531 9.234375 -9.71875 C 9.234375 -9.550781 9.160156 -9.398438 9.015625 -9.265625 C 8.890625 -9.171875 8.75 -9.125 8.59375 -9.125 C 8.4375 -9.125 8.304688 -9.1875 8.203125 -9.3125 C 7.847656 -9.707031 7.421875 -10.007812 6.921875 -10.21875 C 6.429688 -10.425781 5.90625 -10.53125 5.34375 -10.53125 C 4.90625 -10.53125 4.492188 -10.457031 4.109375 -10.3125 C 3.734375 -10.175781 3.414062 -9.96875 3.15625 -9.6875 C 2.90625 -9.40625 2.78125 -9.03125 2.78125 -8.5625 C 2.8125 -8.132812 2.960938 -7.785156 3.234375 -7.515625 C 3.515625 -7.242188 3.878906 -7.015625 4.328125 -6.828125 C 4.785156 -6.648438 5.300781 -6.488281 5.875 -6.34375 C 6.351562 -6.226562 6.8125 -6.085938 7.25 -5.921875 C 7.695312 -5.753906 8.085938 -5.546875 8.421875 -5.296875 C 8.753906 -5.054688 9.019531 -4.75 9.21875 -4.375 C 9.425781 -4 9.53125 -3.523438 9.53125 -2.953125 C 9.53125 -2.296875 9.347656 -1.726562 8.984375 -1.25 C 8.617188 -0.769531 8.128906 -0.40625 7.515625 -0.15625 C 6.898438 0.09375 6.21875 0.21875 5.46875 0.21875 C 4.664062 0.21875 3.882812 0.0625 3.125 -0.25 C 2.375 -0.5625 1.707031 -1.082031 1.125 -1.8125 Z M 1.125 -1.8125 "/></g></g><g style="fill:#333652;fill-opacity:1;"><g transform="translate(240.090214, 241.10256)"><path style="stroke:none" d="M 6.953125 0.21875 C 5.796875 0.21875 4.773438 -0.0234375 3.890625 -0.515625 C 3.015625 -1.003906 2.328125 -1.691406 1.828125 -2.578125 C 1.335938 -3.460938 1.09375 -4.492188 1.09375 -5.671875 C 1.09375 -6.941406 1.34375 -8.023438 1.84375 -8.921875 C 2.34375 -9.816406 2.992188 -10.507812 3.796875 -11 C 4.597656 -11.488281 5.445312 -11.734375 6.34375 -11.734375 C 7 -11.734375 7.632812 -11.613281 8.25 -11.375 C 8.875 -11.144531 9.429688 -10.800781 9.921875 -10.34375 C 10.410156 -9.882812 10.800781 -9.328125 11.09375 -8.671875 C 11.382812 -8.015625 11.539062 -7.253906 11.5625 -6.390625 C 11.550781 -6.210938 11.476562 -6.054688 11.34375 -5.921875 C 11.207031 -5.796875 11.050781 -5.734375 10.875 -5.734375 L 1.890625 -5.734375 L 1.609375 -6.953125 L 10.453125 -6.953125 L 10.15625 -6.6875 L 10.15625 -7.125 C 10.09375 -7.832031 9.867188 -8.429688 9.484375 -8.921875 C 9.097656 -9.410156 8.628906 -9.78125 8.078125 -10.03125 C 7.523438 -10.289062 6.945312 -10.421875 6.34375 -10.421875 C 5.894531 -10.421875 5.4375 -10.332031 4.96875 -10.15625 C 4.5 -9.976562 4.070312 -9.695312 3.6875 -9.3125 C 3.300781 -8.9375 2.988281 -8.453125 2.75 -7.859375 C 2.519531 -7.265625 2.40625 -6.566406 2.40625 -5.765625 C 2.40625 -4.878906 2.582031 -4.078125 2.9375 -3.359375 C 3.289062 -2.640625 3.804688 -2.070312 4.484375 -1.65625 C 5.171875 -1.238281 5.984375 -1.03125 6.921875 -1.03125 C 7.453125 -1.03125 7.925781 -1.101562 8.34375 -1.25 C 8.757812 -1.40625 9.125 -1.601562 9.4375 -1.84375 C 9.75 -2.09375 10.007812 -2.351562 10.21875 -2.625 C 10.382812 -2.757812 10.550781 -2.828125 10.71875 -2.828125 C 10.863281 -2.828125 10.992188 -2.765625 11.109375 -2.640625 C 11.222656 -2.523438 11.28125 -2.390625 11.28125 -2.234375 C 11.28125 -2.054688 11.203125 -1.898438 11.046875 -1.765625 C 10.597656 -1.234375 10.015625 -0.769531 9.296875 -0.375 C 8.585938 0.0195312 7.804688 0.21875 6.953125 0.21875 Z M 6.953125 0.21875 "/></g></g><g style="fill:#000000;fill-opacity:1;"><g transform="translate(247.540585, 255.383992)"><path style="stroke:none" d="M 0.546875 -0.875 C 0.484375 -0.96875 0.453125 -1.054688 0.453125 -1.140625 C 0.460938 -1.222656 0.507812 -1.285156 0.59375 -1.328125 C 0.65625 -1.378906 0.722656 -1.398438 0.796875 -1.390625 C 0.867188 -1.390625 0.941406 -1.359375 1.015625 -1.296875 C 1.203125 -1.035156 1.4375 -0.828125 1.71875 -0.671875 C 2 -0.515625 2.332031 -0.4375 2.71875 -0.4375 C 2.914062 -0.4375 3.113281 -0.472656 3.3125 -0.546875 C 3.507812 -0.617188 3.671875 -0.722656 3.796875 -0.859375 C 3.929688 -1.003906 4 -1.1875 4 -1.40625 C 4 -1.625 3.929688 -1.800781 3.796875 -1.9375 C 3.671875 -2.082031 3.503906 -2.191406 3.296875 -2.265625 C 3.097656 -2.347656 2.882812 -2.414062 2.65625 -2.46875 C 2.40625 -2.539062 2.160156 -2.617188 1.921875 -2.703125 C 1.691406 -2.785156 1.488281 -2.890625 1.3125 -3.015625 C 1.132812 -3.140625 0.992188 -3.289062 0.890625 -3.46875 C 0.785156 -3.65625 0.734375 -3.878906 0.734375 -4.140625 C 0.734375 -4.441406 0.816406 -4.707031 0.984375 -4.9375 C 1.148438 -5.164062 1.375 -5.34375 1.65625 -5.46875 C 1.9375 -5.601562 2.257812 -5.671875 2.625 -5.671875 C 2.8125 -5.671875 3.007812 -5.644531 3.21875 -5.59375 C 3.425781 -5.550781 3.628906 -5.476562 3.828125 -5.375 C 4.035156 -5.269531 4.21875 -5.125 4.375 -4.9375 C 4.4375 -4.863281 4.46875 -4.785156 4.46875 -4.703125 C 4.46875 -4.617188 4.429688 -4.546875 4.359375 -4.484375 C 4.304688 -4.441406 4.238281 -4.421875 4.15625 -4.421875 C 4.082031 -4.421875 4.019531 -4.445312 3.96875 -4.5 C 3.800781 -4.695312 3.597656 -4.847656 3.359375 -4.953125 C 3.117188 -5.054688 2.859375 -5.109375 2.578125 -5.109375 C 2.367188 -5.109375 2.171875 -5.070312 1.984375 -5 C 1.804688 -4.925781 1.65625 -4.820312 1.53125 -4.6875 C 1.40625 -4.550781 1.34375 -4.367188 1.34375 -4.140625 C 1.363281 -3.929688 1.4375 -3.757812 1.5625 -3.625 C 1.695312 -3.5 1.875 -3.394531 2.09375 -3.3125 C 2.320312 -3.226562 2.570312 -3.148438 2.84375 -3.078125 C 3.070312 -3.015625 3.289062 -2.941406 3.5 -2.859375 C 3.71875 -2.785156 3.910156 -2.6875 4.078125 -2.5625 C 4.242188 -2.445312 4.375 -2.296875 4.46875 -2.109375 C 4.5625 -1.929688 4.609375 -1.707031 4.609375 -1.4375 C 4.609375 -1.113281 4.519531 -0.835938 4.34375 -0.609375 C 4.164062 -0.378906 3.925781 -0.203125 3.625 -0.078125 C 3.332031 0.046875 3.007812 0.109375 2.65625 0.109375 C 2.257812 0.109375 1.878906 0.0351562 1.515625 -0.109375 C 1.148438 -0.265625 0.828125 -0.519531 0.546875 -0.875 Z M 0.546875 -0.875 "/></g></g><g style="fill:#000000;fill-opacity:1;"><g transform="translate(252.6355, 255.383992)"><path style="stroke:none" d="M 0.5 -5.53125 L 3.03125 -5.53125 C 3.113281 -5.53125 3.179688 -5.5 3.234375 -5.4375 C 3.296875 -5.375 3.328125 -5.300781 3.328125 -5.21875 C 3.328125 -5.132812 3.296875 -5.0625 3.234375 -5 C 3.179688 -4.945312 3.113281 -4.921875 3.03125 -4.921875 L 0.5 -4.921875 C 0.414062 -4.921875 0.34375 -4.953125 0.28125 -5.015625 C 0.21875 -5.078125 0.1875 -5.144531 0.1875 -5.21875 C 0.1875 -5.3125 0.21875 -5.382812 0.28125 -5.4375 C 0.34375 -5.5 0.414062 -5.53125 0.5 -5.53125 Z M 1.625 -7.0625 C 1.71875 -7.0625 1.789062 -7.023438 1.84375 -6.953125 C 1.90625 -6.890625 1.9375 -6.816406 1.9375 -6.734375 L 1.9375 -1.28125 C 1.9375 -1.082031 1.960938 -0.929688 2.015625 -0.828125 C 2.078125 -0.722656 2.148438 -0.65625 2.234375 -0.625 C 2.328125 -0.59375 2.414062 -0.578125 2.5 -0.578125 C 2.550781 -0.578125 2.597656 -0.582031 2.640625 -0.59375 C 2.691406 -0.613281 2.75 -0.625 2.8125 -0.625 C 2.875 -0.625 2.925781 -0.597656 2.96875 -0.546875 C 3.019531 -0.503906 3.046875 -0.441406 3.046875 -0.359375 C 3.046875 -0.253906 2.988281 -0.164062 2.875 -0.09375 C 2.757812 -0.03125 2.625 0 2.46875 0 C 2.40625 0 2.304688 -0.00390625 2.171875 -0.015625 C 2.035156 -0.0234375 1.898438 -0.0625 1.765625 -0.125 C 1.628906 -0.195312 1.515625 -0.320312 1.421875 -0.5 C 1.335938 -0.675781 1.296875 -0.925781 1.296875 -1.25 L 1.296875 -6.734375 C 1.296875 -6.816406 1.328125 -6.890625 1.390625 -6.953125 C 1.453125 -7.023438 1.53125 -7.0625 1.625 -7.0625 Z M 1.625 -7.0625 "/></g></g><g style="fill:#000000;fill-opacity:1;"><g transform="translate(256.318179, 255.383992)"><path style="stroke:none" d="M 5 -5.515625 C 5.09375 -5.515625 5.171875 -5.484375 5.234375 -5.421875 C 5.296875 -5.359375 5.328125 -5.28125 5.328125 -5.1875 L 5.328125 -2.125 C 5.328125 -1.40625 5.125 -0.859375 4.71875 -0.484375 C 4.3125 -0.109375 3.765625 0.078125 3.078125 0.078125 C 2.398438 0.078125 1.859375 -0.109375 1.453125 -0.484375 C 1.054688 -0.859375 0.859375 -1.40625 0.859375 -2.125 L 0.859375 -5.1875 C 0.859375 -5.28125 0.890625 -5.359375 0.953125 -5.421875 C 1.015625 -5.484375 1.09375 -5.515625 1.1875 -5.515625 C 1.28125 -5.515625 1.359375 -5.484375 1.421875 -5.421875 C 1.484375 -5.359375 1.515625 -5.28125 1.515625 -5.1875 L 1.515625 -2.125 C 1.515625 -1.601562 1.648438 -1.207031 1.921875 -0.9375 C 2.203125 -0.664062 2.585938 -0.53125 3.078125 -0.53125 C 3.578125 -0.53125 3.96875 -0.664062 4.25 -0.9375 C 4.539062 -1.207031 4.6875 -1.601562 4.6875 -2.125 L 4.6875 -5.1875 C 4.6875 -5.28125 4.710938 -5.359375 4.765625 -5.421875 C 4.828125 -5.484375 4.90625 -5.515625 5 -5.515625 Z M 5 -5.515625 "/></g></g><g style="fill:#000000;fill-opacity:1;"><g transform="translate(262.49943, 255.383992)"><path style="stroke:none" d="M 5.40625 -8.03125 C 5.5 -8.03125 5.578125 -8 5.640625 -7.9375 C 5.703125 -7.875 5.734375 -7.796875 5.734375 -7.703125 L 5.734375 -0.328125 C 5.734375 -0.242188 5.695312 -0.164062 5.625 -0.09375 C 5.5625 -0.03125 5.488281 0 5.40625 0 C 5.3125 0 5.234375 -0.03125 5.171875 -0.09375 C 5.109375 -0.164062 5.078125 -0.242188 5.078125 -0.328125 L 5.078125 -1.625 L 5.265625 -1.765625 C 5.265625 -1.566406 5.207031 -1.351562 5.09375 -1.125 C 4.988281 -0.90625 4.835938 -0.703125 4.640625 -0.515625 C 4.441406 -0.328125 4.207031 -0.175781 3.9375 -0.0625 C 3.675781 0.0507812 3.394531 0.109375 3.09375 0.109375 C 2.613281 0.109375 2.175781 -0.015625 1.78125 -0.265625 C 1.394531 -0.523438 1.085938 -0.867188 0.859375 -1.296875 C 0.640625 -1.734375 0.53125 -2.234375 0.53125 -2.796875 C 0.53125 -3.335938 0.640625 -3.828125 0.859375 -4.265625 C 1.085938 -4.710938 1.394531 -5.054688 1.78125 -5.296875 C 2.164062 -5.546875 2.597656 -5.671875 3.078125 -5.671875 C 3.378906 -5.671875 3.660156 -5.617188 3.921875 -5.515625 C 4.191406 -5.410156 4.429688 -5.257812 4.640625 -5.0625 C 4.847656 -4.875 5.007812 -4.660156 5.125 -4.421875 C 5.25 -4.179688 5.3125 -3.929688 5.3125 -3.671875 L 5.078125 -3.828125 L 5.078125 -7.703125 C 5.078125 -7.796875 5.109375 -7.875 5.171875 -7.9375 C 5.234375 -8 5.3125 -8.03125 5.40625 -8.03125 Z M 3.15625 -0.5 C 3.539062 -0.5 3.878906 -0.597656 4.171875 -0.796875 C 4.460938 -0.992188 4.691406 -1.265625 4.859375 -1.609375 C 5.035156 -1.953125 5.125 -2.347656 5.125 -2.796875 C 5.125 -3.222656 5.035156 -3.609375 4.859375 -3.953125 C 4.691406 -4.296875 4.457031 -4.566406 4.15625 -4.765625 C 3.863281 -4.972656 3.53125 -5.078125 3.15625 -5.078125 C 2.769531 -5.078125 2.425781 -4.972656 2.125 -4.765625 C 1.832031 -4.566406 1.597656 -4.296875 1.421875 -3.953125 C 1.253906 -3.609375 1.171875 -3.222656 1.171875 -2.796875 C 1.171875 -2.359375 1.253906 -1.960938 1.421875 -1.609375 C 1.597656 -1.265625 1.832031 -0.992188 2.125 -0.796875 C 2.425781 -0.597656 2.769531 -0.5 3.15625 -0.5 Z M 3.15625 -0.5 "/></g></g><g style="fill:#000000;fill-opacity:1;"><g transform="translate(269.082626, 255.383992)"><path style="stroke:none" d="M 1.484375 -0.328125 C 1.484375 -0.242188 1.453125 -0.164062 1.390625 -0.09375 C 1.328125 -0.03125 1.25 0 1.15625 0 C 1.0625 0 0.984375 -0.03125 0.921875 -0.09375 C 0.867188 -0.164062 0.84375 -0.242188 0.84375 -0.328125 L 0.84375 -5.328125 C 0.84375 -5.410156 0.867188 -5.484375 0.921875 -5.546875 C 0.984375 -5.609375 1.0625 -5.640625 1.15625 -5.640625 C 1.25 -5.640625 1.328125 -5.609375 1.390625 -5.546875 C 1.453125 -5.484375 1.484375 -5.410156 1.484375 -5.328125 Z M 1.15625 -6.375 C 1 -6.375 0.882812 -6.40625 0.8125 -6.46875 C 0.738281 -6.539062 0.703125 -6.640625 0.703125 -6.765625 L 0.703125 -6.875 C 0.703125 -7.007812 0.742188 -7.109375 0.828125 -7.171875 C 0.910156 -7.242188 1.023438 -7.28125 1.171875 -7.28125 C 1.304688 -7.28125 1.410156 -7.242188 1.484375 -7.171875 C 1.554688 -7.109375 1.59375 -7.007812 1.59375 -6.875 L 1.59375 -6.765625 C 1.59375 -6.640625 1.554688 -6.539062 1.484375 -6.46875 C 1.410156 -6.40625 1.300781 -6.375 1.15625 -6.375 Z M 1.15625 -6.375 "/></g></g><g style="fill:#000000;fill-opacity:1;"><g transform="translate(271.407386, 255.383992)"><path style="stroke:none" d="M 6.03125 -2.78125 C 6.03125 -2.226562 5.910156 -1.734375 5.671875 -1.296875 C 5.429688 -0.859375 5.101562 -0.515625 4.6875 -0.265625 C 4.28125 -0.015625 3.8125 0.109375 3.28125 0.109375 C 2.769531 0.109375 2.304688 -0.015625 1.890625 -0.265625 C 1.472656 -0.515625 1.140625 -0.859375 0.890625 -1.296875 C 0.648438 -1.734375 0.53125 -2.226562 0.53125 -2.78125 C 0.53125 -3.332031 0.648438 -3.828125 0.890625 -4.265625 C 1.140625 -4.703125 1.472656 -5.046875 1.890625 -5.296875 C 2.304688 -5.546875 2.769531 -5.671875 3.28125 -5.671875 C 3.8125 -5.671875 4.28125 -5.546875 4.6875 -5.296875 C 5.101562 -5.046875 5.429688 -4.703125 5.671875 -4.265625 C 5.910156 -3.828125 6.03125 -3.332031 6.03125 -2.78125 Z M 5.375 -2.78125 C 5.375 -3.21875 5.28125 -3.609375 5.09375 -3.953125 C 4.914062 -4.296875 4.671875 -4.566406 4.359375 -4.765625 C 4.046875 -4.972656 3.6875 -5.078125 3.28125 -5.078125 C 2.882812 -5.078125 2.523438 -4.972656 2.203125 -4.765625 C 1.890625 -4.566406 1.640625 -4.296875 1.453125 -3.953125 C 1.273438 -3.609375 1.1875 -3.21875 1.1875 -2.78125 C 1.1875 -2.34375 1.273438 -1.953125 1.453125 -1.609375 C 1.640625 -1.265625 1.890625 -0.992188 2.203125 -0.796875 C 2.523438 -0.597656 2.882812 -0.5 3.28125 -0.5 C 3.6875 -0.5 4.046875 -0.597656 4.359375 -0.796875 C 4.671875 -0.992188 4.914062 -1.265625 5.09375 -1.609375 C 5.28125 -1.953125 5.375 -2.34375 5.375 -2.78125 Z M 5.375 -2.78125 "/></g></g></g></svg>