<svg xmlns="http://www.w3.org/2000/svg" xmlns:xlink="http://www.w3.org/1999/xlink" width="500" zoomAndPan="magnify" viewBox="0 0 375 374.999991" height="500" preserveAspectRatio="xMidYMid meet" version="1.2"><defs><filter x="0%" y="0%" width="100%" filterUnits="objectBoundingBox" id="301fe8852e" height="100%"><feColorMatrix values="0 0 0 0 1 0 0 0 0 1 0 0 0 0 1 0 0 0 1 0" type="matrix" in="SourceGraphic"/></filter><clipPath id="53738e9f53"><path d="M 26 70 L 341 70 L 341 311 L 26 311 Z M 26 70 "/></clipPath><clipPath id="7e303daddd"><path d="M 76.769531 393.871094 L -26.90625 75.792969 L 271.757812 -21.554688 L 375.429688 296.527344 Z M 76.769531 393.871094 "/></clipPath><clipPath id="bbfa72083d"><path d="M 128.824219 376.90625 L 322.542969 313.765625 C 336.347656 309.265625 347.800781 299.464844 354.378906 286.523438 C 360.960938 273.578125 362.128906 258.550781 357.628906 244.742188 L 288.019531 31.171875 C 283.519531 17.367188 273.71875 5.914062 260.773438 -0.667969 C 247.828125 -7.246094 232.800781 -8.417969 218.996094 -3.917969 L 25.277344 59.222656 C 11.472656 63.722656 0.0195312 73.523438 -6.558594 86.464844 C -13.140625 99.410156 -14.308594 114.4375 -9.808594 128.246094 L 59.800781 341.816406 C 64.300781 355.621094 74.101562 367.074219 87.046875 373.65625 C 99.988281 380.234375 115.019531 381.40625 128.824219 376.90625 Z M 128.824219 376.90625 "/></clipPath><clipPath id="754747f9bf"><path d="M 76.769531 393.871094 L -26.90625 75.792969 L 270.832031 -21.25 L 374.507812 296.828125 Z M 76.769531 393.871094 "/></clipPath><clipPath id="59ead1e36d"><path d="M 76.769531 393.871094 L -26.90625 75.792969 L 270.832031 -21.25 L 374.507812 296.828125 Z M 76.769531 393.871094 "/></clipPath><clipPath id="3685a44526"><path d="M 17 63 L 349 63 L 349 318 L 17 318 Z M 17 63 "/></clipPath><clipPath id="dcc3c66def"><path d="M 76.769531 393.871094 L -26.90625 75.792969 L 271.757812 -21.554688 L 375.429688 296.527344 Z M 76.769531 393.871094 "/></clipPath><clipPath id="b739a0c1ad"><path d="M 128.824219 376.90625 L 322.542969 313.765625 C 336.347656 309.265625 347.800781 299.464844 354.378906 286.523438 C 360.960938 273.578125 362.128906 258.550781 357.628906 244.742188 L 288.019531 31.171875 C 283.519531 17.367188 273.71875 5.914062 260.773438 -0.667969 C 247.828125 -7.246094 232.800781 -8.417969 218.996094 -3.917969 L 25.277344 59.222656 C 11.472656 63.722656 0.0195312 73.523438 -6.558594 86.464844 C -13.140625 99.410156 -14.308594 114.4375 -9.808594 128.246094 L 59.800781 341.816406 C 64.300781 355.621094 74.101562 367.074219 87.046875 373.65625 C 99.988281 380.234375 115.019531 381.40625 128.824219 376.90625 Z M 128.824219 376.90625 "/></clipPath><clipPath id="f8adf11fc6"><path d="M 76.769531 393.871094 L -26.90625 75.792969 L 270.832031 -21.25 L 374.507812 296.828125 Z M 76.769531 393.871094 "/></clipPath><clipPath id="d6536f2f9a"><path d="M 76.769531 393.871094 L -26.90625 75.792969 L 270.832031 -21.25 L 374.507812 296.828125 Z M 76.769531 393.871094 "/></clipPath><clipPath id="037807df0b"><rect x="0" width="366" y="0" height="374"/></clipPath><clipPath id="4dc05f6838"><path d="M 211 177 L 236 177 L 236 219 L 211 219 Z M 211 177 "/></clipPath><clipPath id="259d266514"><path d="M 194.789062 186.539062 L 234.671875 146.65625 L 266.996094 178.976562 L 227.109375 218.859375 Z M 194.789062 186.539062 "/></clipPath><clipPath id="4efb60ad25"><path d="M 194.789062 186.539062 L 234.671875 146.65625 L 266.996094 178.976562 L 227.109375 218.859375 Z M 194.789062 186.539062 "/></clipPath><clipPath id="62977dd626"><path d="M 228 146 L 246 146 L 246 175 L 228 175 Z M 228 146 "/></clipPath><clipPath id="1040a5ba0e"><path d="M 194.789062 186.539062 L 234.671875 146.65625 L 266.996094 178.976562 L 227.109375 218.859375 Z M 194.789062 186.539062 "/></clipPath><clipPath id="7a7c02d548"><path d="M 194.789062 186.539062 L 234.671875 146.65625 L 266.996094 178.976562 L 227.109375 218.859375 Z M 194.789062 186.539062 "/></clipPath><clipPath id="f279169ffa"><path d="M 215 176 L 219 176 L 219 180 L 215 180 Z M 215 176 "/></clipPath><clipPath id="fa3788cdc4"><path d="M 194.789062 186.539062 L 234.671875 146.65625 L 266.996094 178.976562 L 227.109375 218.859375 Z M 194.789062 186.539062 "/></clipPath><clipPath id="d44fb0eead"><path d="M 194.789062 186.539062 L 234.671875 146.65625 L 266.996094 178.976562 L 227.109375 218.859375 Z M 194.789062 186.539062 "/></clipPath><clipPath id="e11a31a403"><path d="M 241 173 L 245 173 L 245 177 L 241 177 Z M 241 173 "/></clipPath><clipPath id="c1a8b633c9"><path d="M 194.789062 186.539062 L 234.671875 146.65625 L 266.996094 178.976562 L 227.109375 218.859375 Z M 194.789062 186.539062 "/></clipPath><clipPath id="253e028040"><path d="M 194.789062 186.539062 L 234.671875 146.65625 L 266.996094 178.976562 L 227.109375 218.859375 Z M 194.789062 186.539062 "/></clipPath><clipPath id="8dc9fbc620"><path d="M 233 200 L 237 200 L 237 204 L 233 204 Z M 233 200 "/></clipPath><clipPath id="db5cfe3e02"><path d="M 194.789062 186.539062 L 234.671875 146.65625 L 266.996094 178.976562 L 227.109375 218.859375 Z M 194.789062 186.539062 "/></clipPath><clipPath id="76f3c0e931"><path d="M 194.789062 186.539062 L 234.671875 146.65625 L 266.996094 178.976562 L 227.109375 218.859375 Z M 194.789062 186.539062 "/></clipPath></defs><g id="f5609e231d"><rect x="0" width="375" y="0" height="374.999991" style="fill:#ffffff;fill-opacity:1;stroke:none;"/><rect x="0" width="375" y="0" height="374.999991" style="fill:#ffffff;fill-opacity:1;stroke:none;"/><g mask="url(#48e39b45ac)" transform="matrix(1,0,0,1,6,1)"><g clip-path="url(#037807df0b)"><g clip-rule="nonzero" clip-path="url(#53738e9f53)"><g clip-rule="nonzero" clip-path="url(#7e303daddd)"><g clip-rule="nonzero" clip-path="url(#bbfa72083d)"><g clip-rule="nonzero" clip-path="url(#754747f9bf)"><g clip-rule="nonzero" clip-path="url(#59ead1e36d)"><path style=" stroke:none;fill-rule:nonzero;fill:#000000;fill-opacity:1;" d="M 30.855469 156.765625 C 42.945312 194.09375 76.019531 232.9375 117.839844 263.285156 C 82.46875 235.894531 54.871094 202.140625 44.335938 169.625 C 24.597656 108.691406 72.21875 75.167969 150.699219 94.753906 C 229.183594 114.332031 308.800781 179.601562 328.539062 240.535156 C 339.070312 273.058594 330.414062 297.765625 308.117188 310.761719 C 335.90625 297.785156 347.417969 270.066406 335.332031 232.738281 C 314.191406 167.457031 228.886719 97.535156 144.808594 76.554688 C 60.730469 55.570312 9.714844 91.488281 30.855469 156.765625 Z M 30.855469 156.765625 "/></g></g></g></g></g><g clip-rule="nonzero" clip-path="url(#3685a44526)"><g clip-rule="nonzero" clip-path="url(#dcc3c66def)"><g clip-rule="nonzero" clip-path="url(#b739a0c1ad)"><g clip-rule="nonzero" clip-path="url(#f8adf11fc6)"><g clip-rule="nonzero" clip-path="url(#d6536f2f9a)"><path style=" stroke:none;fill-rule:nonzero;fill:#000000;fill-opacity:1;" d="M 56.980469 212.5625 C -7.546875 135.171875 9.867188 64.605469 92.96875 63.386719 C 174.917969 61.101562 290.617188 131.292969 332.28125 208.53125 C 359.738281 257.808594 351.425781 301.902344 311.144531 317.265625 C 354.699219 298.527344 357.839844 245.671875 317.746094 190.15625 C 258.453125 106.402344 130.027344 47.351562 60.605469 72.082031 C 7.992188 90.203125 6.765625 150.167969 56.980469 212.5625 Z M 56.980469 212.5625 "/></g></g></g></g></g></g><mask id="48e39b45ac"><g filter="url(#301fe8852e)"><rect x="0" width="375" y="0" height="374.999991" style="fill:#000000;fill-opacity:0.46;stroke:none;"/></g></mask></g><g clip-rule="nonzero" clip-path="url(#4dc05f6838)"><g clip-rule="nonzero" clip-path="url(#259d266514)"><g clip-rule="nonzero" clip-path="url(#4efb60ad25)"><path style=" stroke:none;fill-rule:evenodd;fill:#003b73;fill-opacity:1;" d="M 228.105469 207.824219 L 226.601562 206.324219 L 228.105469 204.820312 L 226.601562 203.320312 L 228.105469 201.816406 L 226.601562 200.3125 L 228.105469 198.8125 L 226.601562 197.308594 L 229.605469 194.304688 L 228.105469 192.800781 L 229.605469 191.296875 L 231.109375 192.800781 L 232.613281 191.296875 L 234.113281 192.800781 L 235.617188 191.296875 L 234.113281 189.796875 L 232.613281 191.296875 L 231.109375 189.796875 L 229.605469 188.292969 L 228.105469 186.789062 L 226.601562 185.289062 L 225.097656 183.785156 L 226.601562 182.28125 L 225.097656 180.78125 L 226.601562 179.277344 L 225.097656 177.777344 L 223.597656 179.277344 L 225.097656 180.78125 L 223.597656 182.28125 L 225.097656 183.785156 L 223.597656 185.289062 L 222.09375 186.789062 L 223.597656 188.292969 L 222.09375 189.796875 L 220.589844 188.292969 L 219.089844 189.796875 L 217.585938 191.296875 L 216.082031 189.796875 L 214.582031 191.296875 L 213.078125 189.796875 L 211.574219 191.296875 L 213.078125 192.800781 L 214.582031 191.296875 L 216.082031 192.800781 L 217.585938 191.296875 L 219.089844 192.800781 L 220.589844 191.296875 L 222.09375 192.800781 L 220.589844 194.304688 L 222.09375 195.804688 L 223.597656 194.304688 L 225.097656 195.804688 L 223.597656 197.308594 L 225.097656 198.8125 L 226.601562 200.3125 L 225.097656 201.816406 L 226.601562 203.320312 L 225.097656 204.820312 L 226.601562 206.324219 L 225.097656 207.824219 L 226.601562 209.328125 L 225.097656 210.832031 L 226.601562 212.332031 L 228.105469 210.832031 L 226.601562 209.328125 Z M 228.105469 216.839844 L 226.601562 215.339844 L 225.097656 216.839844 L 226.601562 218.34375 Z M 228.105469 216.839844 "/></g></g></g><g clip-rule="nonzero" clip-path="url(#62977dd626)"><g clip-rule="nonzero" clip-path="url(#1040a5ba0e)"><g clip-rule="nonzero" clip-path="url(#7a7c02d548)"><path style=" stroke:none;fill-rule:evenodd;fill:#003b73;fill-opacity:1;" d="M 233.628906 153.941406 L 234.667969 154.980469 L 233.628906 156.019531 L 234.667969 157.0625 L 233.628906 158.101562 L 234.667969 159.140625 L 233.628906 160.183594 L 234.667969 161.222656 L 233.628906 162.261719 L 232.589844 163.304688 L 233.628906 164.34375 L 232.589844 165.382812 L 231.546875 164.34375 L 230.507812 165.382812 L 229.46875 164.34375 L 228.429688 165.382812 L 229.46875 166.421875 L 230.507812 165.382812 L 235.710938 170.585938 L 234.667969 171.625 L 235.710938 172.664062 L 234.667969 173.703125 L 235.710938 174.746094 L 236.75 173.703125 L 235.710938 172.664062 L 236.75 171.625 L 235.710938 170.585938 L 236.75 169.542969 L 237.789062 168.503906 L 236.75 167.464844 L 237.789062 166.421875 L 238.828125 167.464844 L 240.910156 165.382812 L 241.949219 166.421875 L 242.992188 165.382812 L 244.03125 166.421875 L 245.070312 165.382812 L 244.03125 164.34375 L 242.992188 165.382812 L 241.949219 164.34375 L 240.910156 165.382812 L 239.871094 164.34375 L 238.828125 165.382812 L 237.789062 164.34375 L 238.828125 163.304688 L 237.789062 162.261719 L 236.75 163.304688 L 235.710938 162.261719 L 236.75 161.222656 L 234.667969 159.140625 L 235.710938 158.101562 L 234.667969 157.0625 L 235.710938 156.019531 L 234.667969 154.980469 L 235.710938 153.941406 L 234.667969 152.902344 L 235.710938 151.859375 L 234.667969 150.820312 L 233.628906 151.859375 L 234.667969 152.902344 Z M 233.628906 147.699219 L 234.667969 148.738281 L 235.710938 147.699219 L 234.667969 146.660156 Z M 233.628906 147.699219 "/></g></g></g><g clip-rule="nonzero" clip-path="url(#f279169ffa)"><g clip-rule="nonzero" clip-path="url(#fa3788cdc4)"><g clip-rule="nonzero" clip-path="url(#d44fb0eead)"><path style=" stroke:none;fill-rule:evenodd;fill:#003b73;fill-opacity:1;" d="M 215.480469 178.214844 L 216.980469 176.710938 L 218.484375 178.214844 L 216.980469 179.714844 Z M 215.480469 178.214844 "/></g></g></g><g clip-rule="nonzero" clip-path="url(#e11a31a403)"><g clip-rule="nonzero" clip-path="url(#c1a8b633c9)"><g clip-rule="nonzero" clip-path="url(#253e028040)"><path style=" stroke:none;fill-rule:evenodd;fill:#003b73;fill-opacity:1;" d="M 241.089844 174.875 L 242.589844 173.371094 L 244.09375 174.875 L 242.589844 176.375 Z M 241.089844 174.875 "/></g></g></g><g clip-rule="nonzero" clip-path="url(#8dc9fbc620)"><g clip-rule="nonzero" clip-path="url(#db5cfe3e02)"><g clip-rule="nonzero" clip-path="url(#76f3c0e931)"><path style=" stroke:none;fill-rule:evenodd;fill:#003b73;fill-opacity:1;" d="M 233.960938 201.597656 L 235.464844 200.09375 L 236.96875 201.597656 L 235.464844 203.097656 Z M 233.960938 201.597656 "/></g></g></g><g style="fill:#003b73;fill-opacity:1;"><g transform="translate(80.458557, 201.675979)"><path style="stroke:none" d="M 60 -52.296875 C 58.707031 -52.191406 57.53125 -51.960938 56.46875 -51.609375 C 55.40625 -51.253906 54.429688 -50.789062 53.546875 -50.21875 C 52.660156 -49.65625 51.851562 -48.972656 51.125 -48.171875 C 50.40625 -47.367188 49.71875 -46.457031 49.0625 -45.4375 C 48.769531 -44.9375 48.242188 -44.039062 47.484375 -42.75 C 46.722656 -41.457031 45.851562 -39.972656 44.875 -38.296875 C 43.90625 -36.628906 42.875 -34.863281 41.78125 -33 C 40.6875 -31.132812 39.664062 -29.382812 38.71875 -27.75 C 37.769531 -26.113281 36.929688 -24.679688 36.203125 -23.453125 C 35.484375 -22.234375 35.007812 -21.429688 34.78125 -21.046875 L 34.78125 -8.25 C 34.78125 -7.144531 34.890625 -6.195312 35.109375 -5.40625 C 35.335938 -4.613281 35.71875 -3.972656 36.25 -3.484375 C 36.789062 -3.003906 37.492188 -2.648438 38.359375 -2.421875 C 39.234375 -2.203125 40.300781 -2.09375 41.5625 -2.09375 L 42.796875 -2.09375 L 42.796875 0 L 18.515625 0 L 18.515625 -2.09375 L 20.375 -2.09375 C 22.738281 -2.09375 24.453125 -2.550781 25.515625 -3.46875 C 26.585938 -4.394531 27.125 -5.9375 27.125 -8.09375 L 27.125 -20.171875 C 27.039062 -20.273438 26.769531 -20.695312 26.3125 -21.4375 C 25.851562 -22.175781 25.257812 -23.109375 24.53125 -24.234375 C 23.8125 -25.367188 22.992188 -26.640625 22.078125 -28.046875 C 21.171875 -29.453125 20.253906 -30.882812 19.328125 -32.34375 C 18.410156 -33.8125 17.503906 -35.238281 16.609375 -36.625 C 15.722656 -38.019531 14.929688 -39.265625 14.234375 -40.359375 C 13.535156 -41.453125 12.960938 -42.347656 12.515625 -43.046875 C 12.066406 -43.742188 11.828125 -44.117188 11.796875 -44.171875 C 10.328125 -46.429688 9.019531 -48.144531 7.875 -49.3125 C 6.726562 -50.488281 5.679688 -51.25 4.734375 -51.59375 C 4.128906 -51.800781 3.425781 -51.960938 2.625 -52.078125 C 1.820312 -52.203125 0.894531 -52.273438 -0.15625 -52.296875 L -0.15625 -54.3125 L 23.328125 -54.3125 L 23.328125 -52.296875 C 19.222656 -52.296875 17.171875 -51.640625 17.171875 -50.328125 C 17.171875 -49.878906 17.453125 -49.140625 18.015625 -48.109375 C 18.585938 -47.085938 19.273438 -45.953125 20.078125 -44.703125 C 20.878906 -43.453125 21.726562 -42.164062 22.625 -40.84375 C 23.519531 -39.53125 24.296875 -38.375 24.953125 -37.375 C 25.054688 -37.21875 25.296875 -36.847656 25.671875 -36.265625 C 26.054688 -35.691406 26.507812 -35.007812 27.03125 -34.21875 C 27.5625 -33.4375 28.113281 -32.597656 28.6875 -31.703125 C 29.269531 -30.804688 29.816406 -29.957031 30.328125 -29.15625 C 30.847656 -28.351562 31.296875 -27.65625 31.671875 -27.0625 C 32.054688 -26.46875 32.300781 -26.09375 32.40625 -25.9375 C 32.539062 -26.144531 32.914062 -26.773438 33.53125 -27.828125 C 34.15625 -28.878906 34.894531 -30.140625 35.75 -31.609375 C 36.601562 -33.085938 37.519531 -34.660156 38.5 -36.328125 C 39.488281 -38.003906 40.410156 -39.554688 41.265625 -40.984375 C 42.117188 -42.421875 42.835938 -43.632812 43.421875 -44.625 C 44.003906 -45.613281 44.320312 -46.171875 44.375 -46.296875 C 44.769531 -47.066406 45.082031 -47.734375 45.3125 -48.296875 C 45.550781 -48.859375 45.671875 -49.363281 45.671875 -49.8125 C 45.671875 -50.632812 45.21875 -51.253906 44.3125 -51.671875 C 43.40625 -52.085938 41.976562 -52.296875 40.03125 -52.296875 L 40.03125 -54.3125 L 60 -54.3125 Z M 60 -52.296875 "/></g></g><g style="fill:#333652;fill-opacity:1;"><g transform="translate(126.344319, 191.831368)"><path style="stroke:none" d="M 5.765625 -1.1875 C 5.765625 -0.875 5.644531 -0.597656 5.40625 -0.359375 C 5.164062 -0.117188 4.890625 0 4.578125 0 C 4.234375 0 3.945312 -0.117188 3.71875 -0.359375 C 3.488281 -0.597656 3.375 -0.875 3.375 -1.1875 L 3.375 -28.25 C 3.375 -28.570312 3.492188 -28.851562 3.734375 -29.09375 C 3.972656 -29.332031 4.253906 -29.453125 4.578125 -29.453125 C 4.921875 -29.453125 5.203125 -29.332031 5.421875 -29.09375 C 5.648438 -28.851562 5.765625 -28.570312 5.765625 -28.25 Z M 5.765625 -1.1875 "/></g></g><g style="fill:#333652;fill-opacity:1;"><g transform="translate(134.501615, 191.831368)"><path style="stroke:none" d="M 2.671875 -20.78125 C 2.878906 -20.78125 3.085938 -20.710938 3.296875 -20.578125 C 3.515625 -20.441406 3.675781 -20.242188 3.78125 -19.984375 L 10.75 -3.421875 L 10.234375 -3.109375 L 17.34375 -19.984375 C 17.5625 -20.515625 17.945312 -20.765625 18.5 -20.734375 C 18.769531 -20.734375 19.023438 -20.644531 19.265625 -20.46875 C 19.503906 -20.300781 19.625 -20.054688 19.625 -19.734375 C 19.625 -19.578125 19.601562 -19.453125 19.5625 -19.359375 C 19.519531 -19.265625 19.484375 -19.164062 19.453125 -19.0625 L 11.65625 -0.75 C 11.445312 -0.28125 11.09375 -0.03125 10.59375 0 C 10.351562 0.03125 10.117188 -0.0234375 9.890625 -0.171875 C 9.660156 -0.316406 9.492188 -0.507812 9.390625 -0.75 L 1.546875 -19.0625 C 1.523438 -19.113281 1.5 -19.191406 1.46875 -19.296875 C 1.445312 -19.398438 1.4375 -19.507812 1.4375 -19.625 C 1.4375 -19.914062 1.539062 -20.179688 1.75 -20.421875 C 1.957031 -20.660156 2.265625 -20.78125 2.671875 -20.78125 Z M 2.671875 -20.78125 "/></g></g><g style="fill:#333652;fill-opacity:1;"><g transform="translate(155.551447, 191.831368)"><path style="stroke:none" d="M 5.453125 -1.1875 C 5.453125 -0.875 5.332031 -0.597656 5.09375 -0.359375 C 4.851562 -0.117188 4.578125 0 4.265625 0 C 3.910156 0 3.617188 -0.117188 3.390625 -0.359375 C 3.171875 -0.597656 3.0625 -0.875 3.0625 -1.1875 L 3.0625 -19.5 C 3.0625 -19.820312 3.171875 -20.097656 3.390625 -20.328125 C 3.617188 -20.566406 3.910156 -20.6875 4.265625 -20.6875 C 4.609375 -20.6875 4.890625 -20.566406 5.109375 -20.328125 C 5.335938 -20.097656 5.453125 -19.820312 5.453125 -19.5 Z M 4.25 -23.359375 C 3.695312 -23.359375 3.28125 -23.484375 3 -23.734375 C 2.71875 -23.984375 2.578125 -24.347656 2.578125 -24.828125 L 2.578125 -25.21875 C 2.578125 -25.695312 2.726562 -26.0625 3.03125 -26.3125 C 3.34375 -26.570312 3.765625 -26.703125 4.296875 -26.703125 C 4.796875 -26.703125 5.1875 -26.570312 5.46875 -26.3125 C 5.75 -26.0625 5.890625 -25.695312 5.890625 -25.21875 L 5.890625 -24.828125 C 5.890625 -24.347656 5.75 -23.984375 5.46875 -23.734375 C 5.1875 -23.484375 4.78125 -23.359375 4.25 -23.359375 Z M 4.25 -23.359375 "/></g></g><g style="fill:#003b73;fill-opacity:1;"><g transform="translate(141.112291, 259.66789)"><path style="stroke:none" d="M 54.3125 -47.984375 C 53.269531 -47.984375 52.335938 -47.851562 51.515625 -47.59375 C 50.703125 -47.34375 49.96875 -46.945312 49.3125 -46.40625 C 48.664062 -45.863281 48.082031 -45.160156 47.5625 -44.296875 C 47.039062 -43.441406 46.5625 -42.410156 46.125 -41.203125 L 29.6875 1.34375 L 25.375 1.34375 L 8.078125 -41.859375 C 7.492188 -43.359375 6.957031 -44.515625 6.46875 -45.328125 C 5.988281 -46.148438 5.46875 -46.753906 4.90625 -47.140625 C 4.34375 -47.523438 3.695312 -47.753906 2.96875 -47.828125 C 2.25 -47.898438 1.359375 -47.953125 0.296875 -47.984375 L 0.296875 -49.828125 L 22.5625 -49.828125 L 22.5625 -47.984375 C 19.632812 -47.953125 17.554688 -47.644531 16.328125 -47.0625 C 15.097656 -46.488281 14.484375 -45.671875 14.484375 -44.609375 C 14.484375 -44.367188 14.535156 -44.066406 14.640625 -43.703125 C 14.753906 -43.335938 14.867188 -42.988281 14.984375 -42.65625 C 17.328125 -36.90625 19.6875 -31.0625 22.0625 -25.125 C 24.445312 -19.1875 26.804688 -13.347656 29.140625 -7.609375 C 29.242188 -7.847656 29.488281 -8.472656 29.875 -9.484375 C 30.257812 -10.492188 30.734375 -11.757812 31.296875 -13.28125 C 31.867188 -14.800781 32.507812 -16.5 33.21875 -18.375 C 33.9375 -20.25 34.660156 -22.144531 35.390625 -24.0625 C 36.128906 -25.976562 36.847656 -27.859375 37.546875 -29.703125 C 38.242188 -31.554688 38.875 -33.210938 39.4375 -34.671875 C 40.007812 -36.128906 40.46875 -37.332031 40.8125 -38.28125 C 41.164062 -39.238281 41.367188 -39.78125 41.421875 -39.90625 C 41.878906 -40.988281 42.226562 -41.960938 42.46875 -42.828125 C 42.707031 -43.703125 42.828125 -44.34375 42.828125 -44.75 C 42.828125 -45.8125 42.226562 -46.613281 41.03125 -47.15625 C 39.84375 -47.707031 37.984375 -47.984375 35.453125 -47.984375 L 35.453125 -49.828125 L 54.3125 -49.828125 Z M 54.3125 -47.984375 "/></g></g><g style="fill:#333652;fill-opacity:1;"><g transform="translate(184.4368, 250.872097)"><path style="stroke:none" d="M 10.546875 0.34375 C 8.796875 0.34375 7.25 -0.03125 5.90625 -0.78125 C 4.570312 -1.53125 3.53125 -2.570312 2.78125 -3.90625 C 2.039062 -5.25 1.671875 -6.816406 1.671875 -8.609375 C 1.671875 -10.535156 2.050781 -12.175781 2.8125 -13.53125 C 3.570312 -14.894531 4.554688 -15.945312 5.765625 -16.6875 C 6.972656 -17.425781 8.257812 -17.796875 9.625 -17.796875 C 10.625 -17.796875 11.59375 -17.617188 12.53125 -17.265625 C 13.476562 -16.910156 14.316406 -16.382812 15.046875 -15.6875 C 15.785156 -15 16.375 -14.15625 16.8125 -13.15625 C 17.257812 -12.164062 17.503906 -11.007812 17.546875 -9.6875 C 17.523438 -9.414062 17.410156 -9.179688 17.203125 -8.984375 C 17.003906 -8.796875 16.769531 -8.703125 16.5 -8.703125 L 2.859375 -8.703125 L 2.453125 -10.546875 L 15.84375 -10.546875 L 15.40625 -10.140625 L 15.40625 -10.8125 C 15.3125 -11.882812 14.96875 -12.789062 14.375 -13.53125 C 13.789062 -14.28125 13.078125 -14.847656 12.234375 -15.234375 C 11.398438 -15.617188 10.53125 -15.8125 9.625 -15.8125 C 8.945312 -15.8125 8.25 -15.675781 7.53125 -15.40625 C 6.820312 -15.132812 6.175781 -14.707031 5.59375 -14.125 C 5.019531 -13.550781 4.550781 -12.816406 4.1875 -11.921875 C 3.820312 -11.023438 3.640625 -9.960938 3.640625 -8.734375 C 3.640625 -7.398438 3.910156 -6.1875 4.453125 -5.09375 C 4.992188 -4.007812 5.78125 -3.148438 6.8125 -2.515625 C 7.851562 -1.878906 9.085938 -1.5625 10.515625 -1.5625 C 11.304688 -1.5625 12.019531 -1.675781 12.65625 -1.90625 C 13.289062 -2.132812 13.84375 -2.4375 14.3125 -2.8125 C 14.789062 -3.1875 15.191406 -3.578125 15.515625 -3.984375 C 15.765625 -4.179688 16.015625 -4.28125 16.265625 -4.28125 C 16.484375 -4.28125 16.675781 -4.1875 16.84375 -4 C 17.019531 -3.820312 17.109375 -3.625 17.109375 -3.40625 C 17.109375 -3.132812 16.992188 -2.894531 16.765625 -2.6875 C 16.085938 -1.875 15.203125 -1.164062 14.109375 -0.5625 C 13.023438 0.0390625 11.835938 0.34375 10.546875 0.34375 Z M 10.546875 0.34375 "/></g></g><g style="fill:#333652;fill-opacity:1;"><g transform="translate(203.656528, 250.872097)"><path style="stroke:none" d="M 3.703125 0 C 3.390625 0 3.140625 -0.0976562 2.953125 -0.296875 C 2.773438 -0.503906 2.6875 -0.742188 2.6875 -1.015625 L 2.6875 -16.265625 C 2.6875 -16.535156 2.78125 -16.769531 2.96875 -16.96875 C 3.164062 -17.175781 3.410156 -17.28125 3.703125 -17.28125 C 4.003906 -17.28125 4.25 -17.175781 4.4375 -16.96875 C 4.632812 -16.769531 4.734375 -16.535156 4.734375 -16.265625 L 4.734375 -11.15625 L 4.21875 -11.0625 C 4.28125 -11.851562 4.476562 -12.640625 4.8125 -13.421875 C 5.144531 -14.203125 5.59375 -14.921875 6.15625 -15.578125 C 6.71875 -16.234375 7.390625 -16.765625 8.171875 -17.171875 C 8.960938 -17.585938 9.84375 -17.796875 10.8125 -17.796875 C 11.21875 -17.796875 11.613281 -17.707031 12 -17.53125 C 12.382812 -17.363281 12.578125 -17.085938 12.578125 -16.703125 C 12.578125 -16.359375 12.488281 -16.09375 12.3125 -15.90625 C 12.132812 -15.726562 11.921875 -15.640625 11.671875 -15.640625 C 11.460938 -15.640625 11.238281 -15.695312 11 -15.8125 C 10.757812 -15.925781 10.445312 -15.984375 10.0625 -15.984375 C 9.425781 -15.984375 8.789062 -15.796875 8.15625 -15.421875 C 7.53125 -15.046875 6.953125 -14.539062 6.421875 -13.90625 C 5.898438 -13.269531 5.488281 -12.5625 5.1875 -11.78125 C 4.882812 -11 4.734375 -10.210938 4.734375 -9.421875 L 4.734375 -1.015625 C 4.734375 -0.742188 4.628906 -0.503906 4.421875 -0.296875 C 4.210938 -0.0976562 3.972656 0 3.703125 0 Z M 3.703125 0 "/></g></g><g style="fill:#333652;fill-opacity:1;"><g transform="translate(216.753155, 250.872097)"><path style="stroke:none" d="M 1.703125 -2.75 C 1.515625 -3.019531 1.425781 -3.285156 1.4375 -3.546875 C 1.457031 -3.816406 1.601562 -4.03125 1.875 -4.1875 C 2.050781 -4.34375 2.257812 -4.410156 2.5 -4.390625 C 2.738281 -4.367188 2.957031 -4.253906 3.15625 -4.046875 C 3.769531 -3.253906 4.515625 -2.613281 5.390625 -2.125 C 6.265625 -1.632812 7.300781 -1.390625 8.5 -1.390625 C 9.132812 -1.390625 9.765625 -1.5 10.390625 -1.71875 C 11.015625 -1.9375 11.53125 -2.265625 11.9375 -2.703125 C 12.34375 -3.148438 12.546875 -3.710938 12.546875 -4.390625 C 12.546875 -5.085938 12.34375 -5.648438 11.9375 -6.078125 C 11.53125 -6.515625 11.003906 -6.859375 10.359375 -7.109375 C 9.710938 -7.359375 9.023438 -7.570312 8.296875 -7.75 C 7.523438 -7.957031 6.773438 -8.191406 6.046875 -8.453125 C 5.328125 -8.710938 4.6875 -9.039062 4.125 -9.4375 C 3.570312 -9.832031 3.125 -10.3125 2.78125 -10.875 C 2.445312 -11.445312 2.28125 -12.140625 2.28125 -12.953125 C 2.28125 -13.910156 2.539062 -14.75 3.0625 -15.46875 C 3.582031 -16.195312 4.289062 -16.765625 5.1875 -17.171875 C 6.082031 -17.585938 7.097656 -17.796875 8.234375 -17.796875 C 8.796875 -17.796875 9.40625 -17.71875 10.0625 -17.5625 C 10.726562 -17.414062 11.375 -17.171875 12 -16.828125 C 12.632812 -16.492188 13.203125 -16.03125 13.703125 -15.4375 C 13.910156 -15.238281 14.015625 -15.007812 14.015625 -14.75 C 14.015625 -14.488281 13.898438 -14.253906 13.671875 -14.046875 C 13.492188 -13.910156 13.285156 -13.84375 13.046875 -13.84375 C 12.804688 -13.84375 12.609375 -13.929688 12.453125 -14.109375 C 11.910156 -14.722656 11.265625 -15.1875 10.515625 -15.5 C 9.765625 -15.820312 8.957031 -15.984375 8.09375 -15.984375 C 7.4375 -15.984375 6.816406 -15.875 6.234375 -15.65625 C 5.660156 -15.445312 5.179688 -15.125 4.796875 -14.6875 C 4.410156 -14.257812 4.21875 -13.695312 4.21875 -13 C 4.257812 -12.332031 4.488281 -11.796875 4.90625 -11.390625 C 5.332031 -10.984375 5.890625 -10.644531 6.578125 -10.375 C 7.273438 -10.101562 8.050781 -9.851562 8.90625 -9.625 C 9.632812 -9.445312 10.332031 -9.234375 11 -8.984375 C 11.664062 -8.734375 12.253906 -8.421875 12.765625 -8.046875 C 13.273438 -7.671875 13.679688 -7.195312 13.984375 -6.625 C 14.296875 -6.0625 14.453125 -5.347656 14.453125 -4.484375 C 14.453125 -3.492188 14.175781 -2.632812 13.625 -1.90625 C 13.070312 -1.175781 12.328125 -0.617188 11.390625 -0.234375 C 10.460938 0.148438 9.429688 0.34375 8.296875 0.34375 C 7.078125 0.34375 5.894531 0.101562 4.75 -0.375 C 3.601562 -0.851562 2.585938 -1.644531 1.703125 -2.75 Z M 1.703125 -2.75 "/></g></g><g style="fill:#333652;fill-opacity:1;"><g transform="translate(232.70723, 250.872097)"><path style="stroke:none" d="M 10.546875 0.34375 C 8.796875 0.34375 7.25 -0.03125 5.90625 -0.78125 C 4.570312 -1.53125 3.53125 -2.570312 2.78125 -3.90625 C 2.039062 -5.25 1.671875 -6.816406 1.671875 -8.609375 C 1.671875 -10.535156 2.050781 -12.175781 2.8125 -13.53125 C 3.570312 -14.894531 4.554688 -15.945312 5.765625 -16.6875 C 6.972656 -17.425781 8.257812 -17.796875 9.625 -17.796875 C 10.625 -17.796875 11.59375 -17.617188 12.53125 -17.265625 C 13.476562 -16.910156 14.316406 -16.382812 15.046875 -15.6875 C 15.785156 -15 16.375 -14.15625 16.8125 -13.15625 C 17.257812 -12.164062 17.503906 -11.007812 17.546875 -9.6875 C 17.523438 -9.414062 17.410156 -9.179688 17.203125 -8.984375 C 17.003906 -8.796875 16.769531 -8.703125 16.5 -8.703125 L 2.859375 -8.703125 L 2.453125 -10.546875 L 15.84375 -10.546875 L 15.40625 -10.140625 L 15.40625 -10.8125 C 15.3125 -11.882812 14.96875 -12.789062 14.375 -13.53125 C 13.789062 -14.28125 13.078125 -14.847656 12.234375 -15.234375 C 11.398438 -15.617188 10.53125 -15.8125 9.625 -15.8125 C 8.945312 -15.8125 8.25 -15.675781 7.53125 -15.40625 C 6.820312 -15.132812 6.175781 -14.707031 5.59375 -14.125 C 5.019531 -13.550781 4.550781 -12.816406 4.1875 -11.921875 C 3.820312 -11.023438 3.640625 -9.960938 3.640625 -8.734375 C 3.640625 -7.398438 3.910156 -6.1875 4.453125 -5.09375 C 4.992188 -4.007812 5.78125 -3.148438 6.8125 -2.515625 C 7.851562 -1.878906 9.085938 -1.5625 10.515625 -1.5625 C 11.304688 -1.5625 12.019531 -1.675781 12.65625 -1.90625 C 13.289062 -2.132812 13.84375 -2.4375 14.3125 -2.8125 C 14.789062 -3.1875 15.191406 -3.578125 15.515625 -3.984375 C 15.765625 -4.179688 16.015625 -4.28125 16.265625 -4.28125 C 16.484375 -4.28125 16.675781 -4.1875 16.84375 -4 C 17.019531 -3.820312 17.109375 -3.625 17.109375 -3.40625 C 17.109375 -3.132812 16.992188 -2.894531 16.765625 -2.6875 C 16.085938 -1.875 15.203125 -1.164062 14.109375 -0.5625 C 13.023438 0.0390625 11.835938 0.34375 10.546875 0.34375 Z M 10.546875 0.34375 "/></g></g><g style="fill:#000000;fill-opacity:1;"><g transform="translate(244.008089, 272.534442)"><path style="stroke:none" d="M 0.828125 -1.328125 C 0.734375 -1.460938 0.6875 -1.59375 0.6875 -1.71875 C 0.695312 -1.84375 0.769531 -1.945312 0.90625 -2.03125 C 0.988281 -2.101562 1.085938 -2.132812 1.203125 -2.125 C 1.328125 -2.113281 1.4375 -2.0625 1.53125 -1.96875 C 1.832031 -1.582031 2.191406 -1.269531 2.609375 -1.03125 C 3.035156 -0.789062 3.539062 -0.671875 4.125 -0.671875 C 4.425781 -0.671875 4.726562 -0.722656 5.03125 -0.828125 C 5.332031 -0.929688 5.582031 -1.085938 5.78125 -1.296875 C 5.976562 -1.515625 6.078125 -1.789062 6.078125 -2.125 C 6.078125 -2.46875 5.976562 -2.742188 5.78125 -2.953125 C 5.582031 -3.160156 5.328125 -3.320312 5.015625 -3.4375 C 4.703125 -3.5625 4.367188 -3.671875 4.015625 -3.765625 C 3.648438 -3.859375 3.289062 -3.96875 2.9375 -4.09375 C 2.582031 -4.21875 2.269531 -4.375 2 -4.5625 C 1.726562 -4.757812 1.507812 -4.992188 1.34375 -5.265625 C 1.1875 -5.546875 1.109375 -5.882812 1.109375 -6.28125 C 1.109375 -6.738281 1.234375 -7.144531 1.484375 -7.5 C 1.734375 -7.851562 2.078125 -8.128906 2.515625 -8.328125 C 2.953125 -8.523438 3.441406 -8.625 3.984375 -8.625 C 4.265625 -8.625 4.5625 -8.585938 4.875 -8.515625 C 5.195312 -8.441406 5.507812 -8.320312 5.8125 -8.15625 C 6.125 -7.988281 6.398438 -7.765625 6.640625 -7.484375 C 6.742188 -7.378906 6.796875 -7.265625 6.796875 -7.140625 C 6.796875 -7.015625 6.738281 -6.90625 6.625 -6.8125 C 6.539062 -6.738281 6.441406 -6.703125 6.328125 -6.703125 C 6.210938 -6.703125 6.113281 -6.75 6.03125 -6.84375 C 5.769531 -7.132812 5.457031 -7.359375 5.09375 -7.515625 C 4.726562 -7.671875 4.335938 -7.75 3.921875 -7.75 C 3.597656 -7.75 3.296875 -7.695312 3.015625 -7.59375 C 2.742188 -7.488281 2.515625 -7.332031 2.328125 -7.125 C 2.140625 -6.914062 2.046875 -6.640625 2.046875 -6.296875 C 2.066406 -5.972656 2.175781 -5.710938 2.375 -5.515625 C 2.582031 -5.316406 2.851562 -5.148438 3.1875 -5.015625 C 3.519531 -4.890625 3.894531 -4.773438 4.3125 -4.671875 C 4.664062 -4.578125 5.003906 -4.46875 5.328125 -4.34375 C 5.648438 -4.226562 5.9375 -4.078125 6.1875 -3.890625 C 6.4375 -3.710938 6.632812 -3.484375 6.78125 -3.203125 C 6.925781 -2.929688 7 -2.585938 7 -2.171875 C 7 -1.691406 6.863281 -1.273438 6.59375 -0.921875 C 6.332031 -0.566406 5.972656 -0.296875 5.515625 -0.109375 C 5.066406 0.078125 4.566406 0.171875 4.015625 0.171875 C 3.421875 0.171875 2.847656 0.0546875 2.296875 -0.171875 C 1.742188 -0.410156 1.253906 -0.796875 0.828125 -1.328125 Z M 0.828125 -1.328125 "/></g></g><g style="fill:#000000;fill-opacity:1;"><g transform="translate(251.736152, 272.534442)"><path style="stroke:none" d="M 0.765625 -8.390625 L 4.59375 -8.390625 C 4.726562 -8.390625 4.835938 -8.34375 4.921875 -8.25 C 5.015625 -8.15625 5.0625 -8.039062 5.0625 -7.90625 C 5.0625 -7.789062 5.015625 -7.6875 4.921875 -7.59375 C 4.835938 -7.507812 4.726562 -7.46875 4.59375 -7.46875 L 0.765625 -7.46875 C 0.628906 -7.46875 0.515625 -7.515625 0.421875 -7.609375 C 0.328125 -7.703125 0.28125 -7.804688 0.28125 -7.921875 C 0.28125 -8.054688 0.328125 -8.164062 0.421875 -8.25 C 0.515625 -8.34375 0.628906 -8.390625 0.765625 -8.390625 Z M 2.453125 -10.71875 C 2.597656 -10.71875 2.71875 -10.664062 2.8125 -10.5625 C 2.90625 -10.46875 2.953125 -10.351562 2.953125 -10.21875 L 2.953125 -1.9375 C 2.953125 -1.632812 2.992188 -1.40625 3.078125 -1.25 C 3.160156 -1.09375 3.265625 -0.988281 3.390625 -0.9375 C 3.523438 -0.894531 3.660156 -0.875 3.796875 -0.875 C 3.878906 -0.875 3.957031 -0.882812 4.03125 -0.90625 C 4.101562 -0.9375 4.179688 -0.953125 4.265625 -0.953125 C 4.367188 -0.953125 4.453125 -0.910156 4.515625 -0.828125 C 4.585938 -0.753906 4.625 -0.660156 4.625 -0.546875 C 4.625 -0.390625 4.535156 -0.257812 4.359375 -0.15625 C 4.191406 -0.0507812 3.984375 0 3.734375 0 C 3.640625 0 3.492188 -0.00390625 3.296875 -0.015625 C 3.097656 -0.0351562 2.894531 -0.0976562 2.6875 -0.203125 C 2.476562 -0.304688 2.304688 -0.488281 2.171875 -0.75 C 2.035156 -1.019531 1.96875 -1.398438 1.96875 -1.890625 L 1.96875 -10.21875 C 1.96875 -10.351562 2.007812 -10.46875 2.09375 -10.5625 C 2.1875 -10.664062 2.304688 -10.71875 2.453125 -10.71875 Z M 2.453125 -10.71875 "/></g></g><g style="fill:#000000;fill-opacity:1;"><g transform="translate(257.322111, 272.534442)"><path style="stroke:none" d="M 7.59375 -8.375 C 7.738281 -8.375 7.859375 -8.320312 7.953125 -8.21875 C 8.046875 -8.125 8.09375 -8.007812 8.09375 -7.875 L 8.09375 -3.234375 C 8.09375 -2.140625 7.785156 -1.304688 7.171875 -0.734375 C 6.554688 -0.171875 5.726562 0.109375 4.6875 0.109375 C 3.644531 0.109375 2.816406 -0.171875 2.203125 -0.734375 C 1.597656 -1.304688 1.296875 -2.140625 1.296875 -3.234375 L 1.296875 -7.875 C 1.296875 -8.007812 1.34375 -8.125 1.4375 -8.21875 C 1.53125 -8.320312 1.648438 -8.375 1.796875 -8.375 C 1.941406 -8.375 2.0625 -8.320312 2.15625 -8.21875 C 2.25 -8.125 2.296875 -8.007812 2.296875 -7.875 L 2.296875 -3.234375 C 2.296875 -2.441406 2.503906 -1.835938 2.921875 -1.421875 C 3.347656 -1.015625 3.9375 -0.8125 4.6875 -0.8125 C 5.4375 -0.8125 6.023438 -1.015625 6.453125 -1.421875 C 6.890625 -1.835938 7.109375 -2.441406 7.109375 -3.234375 L 7.109375 -7.875 C 7.109375 -8.007812 7.148438 -8.125 7.234375 -8.21875 C 7.328125 -8.320312 7.445312 -8.375 7.59375 -8.375 Z M 7.59375 -8.375 "/></g></g><g style="fill:#000000;fill-opacity:1;"><g transform="translate(266.697949, 272.534442)"><path style="stroke:none" d="M 8.203125 -12.203125 C 8.347656 -12.203125 8.46875 -12.15625 8.5625 -12.0625 C 8.65625 -11.96875 8.703125 -11.847656 8.703125 -11.703125 L 8.703125 -0.5 C 8.703125 -0.363281 8.648438 -0.242188 8.546875 -0.140625 C 8.453125 -0.046875 8.335938 0 8.203125 0 C 8.066406 0 7.953125 -0.046875 7.859375 -0.140625 C 7.765625 -0.242188 7.71875 -0.363281 7.71875 -0.5 L 7.71875 -2.453125 L 8 -2.6875 C 8 -2.375 7.914062 -2.050781 7.75 -1.71875 C 7.582031 -1.382812 7.347656 -1.070312 7.046875 -0.78125 C 6.742188 -0.5 6.390625 -0.269531 5.984375 -0.09375 C 5.585938 0.0820312 5.160156 0.171875 4.703125 0.171875 C 3.960938 0.171875 3.296875 -0.0195312 2.703125 -0.40625 C 2.117188 -0.789062 1.65625 -1.3125 1.3125 -1.96875 C 0.976562 -2.632812 0.8125 -3.390625 0.8125 -4.234375 C 0.8125 -5.066406 0.976562 -5.816406 1.3125 -6.484375 C 1.65625 -7.148438 2.117188 -7.671875 2.703125 -8.046875 C 3.285156 -8.429688 3.945312 -8.625 4.6875 -8.625 C 5.132812 -8.625 5.5625 -8.539062 5.96875 -8.375 C 6.375 -8.207031 6.734375 -7.976562 7.046875 -7.6875 C 7.359375 -7.40625 7.601562 -7.082031 7.78125 -6.71875 C 7.96875 -6.351562 8.0625 -5.972656 8.0625 -5.578125 L 7.71875 -5.8125 L 7.71875 -11.703125 C 7.71875 -11.835938 7.765625 -11.953125 7.859375 -12.046875 C 7.953125 -12.148438 8.066406 -12.203125 8.203125 -12.203125 Z M 4.78125 -0.765625 C 5.375 -0.765625 5.890625 -0.914062 6.328125 -1.21875 C 6.773438 -1.519531 7.128906 -1.929688 7.390625 -2.453125 C 7.648438 -2.972656 7.78125 -3.566406 7.78125 -4.234375 C 7.78125 -4.890625 7.648438 -5.476562 7.390625 -6 C 7.128906 -6.53125 6.773438 -6.945312 6.328125 -7.25 C 5.878906 -7.550781 5.363281 -7.703125 4.78125 -7.703125 C 4.207031 -7.703125 3.691406 -7.550781 3.234375 -7.25 C 2.785156 -6.945312 2.429688 -6.53125 2.171875 -6 C 1.910156 -5.476562 1.78125 -4.890625 1.78125 -4.234375 C 1.78125 -3.578125 1.910156 -2.984375 2.171875 -2.453125 C 2.429688 -1.929688 2.785156 -1.519531 3.234375 -1.21875 C 3.691406 -0.914062 4.207031 -0.765625 4.78125 -0.765625 Z M 4.78125 -0.765625 "/></g></g><g style="fill:#000000;fill-opacity:1;"><g transform="translate(276.683468, 272.534442)"><path style="stroke:none" d="M 2.265625 -0.5 C 2.265625 -0.363281 2.210938 -0.242188 2.109375 -0.140625 C 2.015625 -0.046875 1.898438 0 1.765625 0 C 1.617188 0 1.5 -0.046875 1.40625 -0.140625 C 1.3125 -0.242188 1.265625 -0.363281 1.265625 -0.5 L 1.265625 -8.078125 C 1.265625 -8.210938 1.3125 -8.328125 1.40625 -8.421875 C 1.5 -8.523438 1.617188 -8.578125 1.765625 -8.578125 C 1.910156 -8.578125 2.03125 -8.523438 2.125 -8.421875 C 2.21875 -8.328125 2.265625 -8.210938 2.265625 -8.078125 Z M 1.765625 -9.671875 C 1.535156 -9.671875 1.363281 -9.722656 1.25 -9.828125 C 1.132812 -9.929688 1.078125 -10.082031 1.078125 -10.28125 L 1.078125 -10.453125 C 1.078125 -10.648438 1.140625 -10.800781 1.265625 -10.90625 C 1.390625 -11.007812 1.5625 -11.0625 1.78125 -11.0625 C 1.988281 -11.0625 2.148438 -11.007812 2.265625 -10.90625 C 2.378906 -10.800781 2.4375 -10.648438 2.4375 -10.453125 L 2.4375 -10.28125 C 2.4375 -10.082031 2.378906 -9.929688 2.265625 -9.828125 C 2.148438 -9.722656 1.984375 -9.671875 1.765625 -9.671875 Z M 1.765625 -9.671875 "/></g></g><g style="fill:#000000;fill-opacity:1;"><g transform="translate(280.209707, 272.534442)"><path style="stroke:none" d="M 9.15625 -4.21875 C 9.15625 -3.382812 8.972656 -2.632812 8.609375 -1.96875 C 8.242188 -1.300781 7.75 -0.773438 7.125 -0.390625 C 6.5 -0.015625 5.785156 0.171875 4.984375 0.171875 C 4.203125 0.171875 3.492188 -0.015625 2.859375 -0.390625 C 2.222656 -0.773438 1.722656 -1.300781 1.359375 -1.96875 C 0.992188 -2.632812 0.8125 -3.382812 0.8125 -4.21875 C 0.8125 -5.0625 0.992188 -5.8125 1.359375 -6.46875 C 1.722656 -7.132812 2.222656 -7.660156 2.859375 -8.046875 C 3.492188 -8.429688 4.203125 -8.625 4.984375 -8.625 C 5.785156 -8.625 6.5 -8.429688 7.125 -8.046875 C 7.75 -7.660156 8.242188 -7.132812 8.609375 -6.46875 C 8.972656 -5.8125 9.15625 -5.0625 9.15625 -4.21875 Z M 8.15625 -4.21875 C 8.15625 -4.882812 8.015625 -5.476562 7.734375 -6 C 7.460938 -6.53125 7.085938 -6.945312 6.609375 -7.25 C 6.140625 -7.550781 5.597656 -7.703125 4.984375 -7.703125 C 4.390625 -7.703125 3.847656 -7.550781 3.359375 -7.25 C 2.878906 -6.945312 2.5 -6.53125 2.21875 -6 C 1.9375 -5.476562 1.796875 -4.882812 1.796875 -4.21875 C 1.796875 -3.550781 1.9375 -2.957031 2.21875 -2.4375 C 2.5 -1.925781 2.878906 -1.519531 3.359375 -1.21875 C 3.847656 -0.914062 4.390625 -0.765625 4.984375 -0.765625 C 5.597656 -0.765625 6.140625 -0.914062 6.609375 -1.21875 C 7.085938 -1.519531 7.460938 -1.925781 7.734375 -2.4375 C 8.015625 -2.957031 8.15625 -3.550781 8.15625 -4.21875 Z M 8.15625 -4.21875 "/></g></g></g></svg>