<?xml version="1.0" encoding="utf-8"?>
<!-- Generator: Adobe Illustrator 26.3.1, SVG Export Plug-In . SVG Version: 6.00 Build 0)  -->
<svg version="1.1" id="Layer_1" xmlns="http://www.w3.org/2000/svg" xmlns:xlink="http://www.w3.org/1999/xlink" x="0px" y="0px"
	 viewBox="0 0 452.2 395.6" style="enable-background:new 0 0 452.2 395.6;" xml:space="preserve">
<style type="text/css">
	.st0{fill:none;}
	.st1{fill:#EDADAD;}
</style>
<rect x="-565.6" y="-8.6" class="st0" width="498.9" height="431.1"/>
<g>
	<g>
		<path class="st1" d="M94.4,2.8c14,25.7,28.9,50.7,50.7,70.9c36,33.5,78.4,52.6,127.3,57.4c14.7,1.4,29.2,0.5,43.3-4.4
			c1.4-0.5,2.8-0.8,5-1.4c-32.1,55.8-63.8,110.8-95.9,166.5c-25.7-44.4-51.2-88.4-77.2-133.2c2.1,1,3.2,1.6,4.4,2.2
			c14.5,6.7,29.1,13.3,43.5,20c1.3,0.6,2.6,1.9,3.4,3.1c8,13.6,15.8,27.2,23.7,40.8c0.6,1,1.2,1.9,2.1,3.4
			c12.9-22.2,25.5-44.1,38.3-66.2c-16.6-2-32.5-5.3-47.9-10.4c-58.2-19.3-102.7-55.4-134-107.9C73.9,31.4,66.9,18.9,59.7,6.5
			c-0.6-1.1-1.4-2-2.2-3c0.7-0.2,1.4-0.7,2.1-0.7C71.2,2.8,82.8,2.8,94.4,2.8z"/>
		<path class="st1" d="M392,3.5c-7.9,13.4-15.8,26.7-23.6,40.1c-10.3,17.6-20.5,35.2-30.8,52.8c-0.8,1.4-2.2,2.9-3.6,3.3
			c-11.9,3.6-24.1,4.2-37,3.7c0.8-1.5,1.4-2.7,2.1-3.8c18-31,36.1-62,54.1-93c0.7-1.2,1.3-2.4,1.9-3.7c11.6,0,23.2,0,34.8,0
			C390.6,2.8,391.3,3.2,392,3.5z"/>
	</g>
	<g>
		<g>
			<path class="st1" d="M12.3,363.7l7,13.6l7-13.6h7.5l-11,19v10.9h-7v-10.9l-11.1-19H12.3z"/>
			<path class="st1" d="M65,363.7v29.9h-6.9v-29.9H65z M79.7,388.8v4.8H62.8v-4.8H79.7z"/>
			<path class="st1" d="M109.7,363.7l7.9,23.6l1.2,6.2h-5.1L102,363.7H109.7z M116.9,387.3l7.9-23.6h7.7l-11.7,29.9h-5.1
				L116.9,387.3z"/>
			<path class="st1" d="M164.2,363.7v29.9h-6.9v-29.9H164.2z"/>
			<path class="st1" d="M229.6,363.7l7.9,23.6l1.2,6.2h-5.1L222,363.7H229.6z M236.9,387.3l7.9-23.6h7.7l-11.7,29.9h-5.1
				L236.9,387.3z"/>
			<path class="st1" d="M283.7,363.7v29.9h-6.9v-29.9H283.7z M299.3,363.7v4.8h-17.8v-4.8H299.3z M297,375.9v4.7h-15.5v-4.7H297z
				 M299.3,388.8v4.8h-17.8v-4.8H299.3z"/>
			<path class="st1" d="M324.6,363.7h12.5c2.6,0,4.8,0.3,6.6,1c1.8,0.7,3.3,1.7,4.3,3s1.5,3,1.5,4.9c0,1.6-0.3,3-0.9,4.1
				s-1.5,2.1-2.6,2.8c-1.1,0.8-2.4,1.4-3.9,1.8l-2.2,1h-10.9l0-4.8h8.1c1.2,0,2.2-0.2,3-0.6s1.4-0.9,1.8-1.6
				c0.4-0.7,0.6-1.5,0.6-2.4c0-1-0.2-1.8-0.6-2.5c-0.4-0.7-1-1.2-1.8-1.6s-1.8-0.6-3.1-0.6h-5.6v25h-6.9V363.7z M343.3,393.6
				l-7.6-13.3l7.3,0l7.7,13.1v0.3H343.3z"/>
			<path class="st1" d="M393.5,385.7c0-0.5-0.1-1-0.3-1.4c-0.2-0.4-0.5-0.8-1-1.2c-0.5-0.4-1.1-0.7-2-1.1s-2-0.7-3.3-1.1
				c-1.5-0.4-3-0.9-4.3-1.5s-2.6-1.2-3.6-1.9c-1-0.7-1.8-1.6-2.4-2.6c-0.6-1-0.9-2.1-0.9-3.4c0-1.2,0.3-2.4,0.9-3.4s1.5-1.9,2.6-2.6
				c1.1-0.7,2.4-1.3,3.9-1.7s3.2-0.6,5-0.6c2.5,0,4.6,0.4,6.5,1.2s3.3,1.9,4.3,3.3c1,1.4,1.5,3,1.5,4.7h-6.9c0-0.9-0.2-1.6-0.6-2.3
				s-1-1.2-1.8-1.6s-1.9-0.6-3.1-0.6c-1.2,0-2.2,0.2-3,0.5c-0.8,0.3-1.4,0.8-1.8,1.3s-0.6,1.1-0.6,1.8c0,0.5,0.1,1,0.4,1.4
				s0.7,0.8,1.3,1.1c0.6,0.4,1.3,0.7,2.1,1s1.8,0.6,2.9,0.9c1.8,0.5,3.4,1,4.8,1.7c1.4,0.6,2.6,1.3,3.5,2.1c0.9,0.8,1.6,1.6,2.1,2.6
				s0.7,2.1,0.7,3.3c0,1.3-0.3,2.5-0.9,3.5c-0.6,1-1.4,1.9-2.5,2.6s-2.4,1.3-3.8,1.6c-1.5,0.4-3.2,0.6-5,0.6c-1.7,0-3.3-0.2-4.9-0.6
				c-1.6-0.4-3.1-1-4.4-1.8s-2.4-1.8-3.1-3c-0.8-1.2-1.2-2.7-1.2-4.4h6.9c0,0.9,0.2,1.7,0.5,2.4s0.8,1.2,1.4,1.6
				c0.6,0.4,1.3,0.7,2.1,0.9c0.8,0.2,1.7,0.3,2.7,0.3c1.2,0,2.2-0.2,3-0.5c0.8-0.3,1.4-0.7,1.7-1.3
				C393.3,387,393.5,386.4,393.5,385.7z"/>
			<path class="st1" d="M433.2,363.7v29.9h-6.9v-29.9H433.2z M448.7,363.7v4.8h-17.8v-4.8H448.7z M446.4,375.9v4.7h-15.5v-4.7H446.4
				z M448.8,388.8v4.8h-17.8v-4.8H448.8z"/>
		</g>
	</g>
</g>
</svg>
